<?xml version="1.0" encoding="utf-8"?>
<!-- Generator: Adobe Illustrator 22.0.1, SVG Export Plug-In . SVG Version: 6.00 Build 0)  -->
<svg version="1.1" id="Capa_1" xmlns="http://www.w3.org/2000/svg" xmlns:xlink="http://www.w3.org/1999/xlink" x="0px" y="0px"
	 viewBox="0 0 512 512" style="enable-background:new 0 0 512 512;" xml:space="preserve">
<style type="text/css">
	.st0{fill:#E3F8FA;}
	.st1{fill:#8CE1EB;}
	.st2{fill:#26C6DA;}
</style>
<path class="st0" d="M256,512L256,512C114.6,512,0,397.4,0,256v0C0,114.6,114.6,0,256,0h0c141.4,0,256,114.6,256,256v0
	C512,397.4,397.4,512,256,512z"/>
<g>
	<path class="st1" d="M376,266.7c-4.4,0-8-3.6-8-8c0-30.7-11.9-59.5-33.5-81.1C312.8,155.9,284,144,253.3,144c-4.4,0-8-3.6-8-8
		s3.6-8,8-8c35,0,67.8,13.6,92.4,38.2c24.6,24.6,38.2,57.5,38.2,92.4C384,263.1,380.4,266.7,376,266.7z"/>
	<path class="st1" d="M340.9,266.7c-4.4,0-8-3.6-8-8c0-21.3-8.3-41.3-23.3-56.3s-35-23.3-56.3-23.3c-4.4,0-8-3.6-8-8s3.6-8,8-8
		c25.6,0,49.6,9.9,67.6,28s28,42.1,28,67.6C348.9,263.1,345.4,266.7,340.9,266.7z"/>
	<path class="st1" d="M305.9,266.7C305.9,266.7,305.9,266.7,305.9,266.7c-4.5,0-8-3.6-8-8c0.1-11.8-4.6-23-13-31.5
		c-8.5-8.5-19.3-12.9-31.5-13c-4.4,0.5-8-3.5-8-8c0-4.4,3.5-8,8-8c16.6,0.1,31.4,6.2,42.9,17.7s17.8,26.8,17.7,42.9
		C313.9,263.1,310.3,266.7,305.9,266.7z"/>
</g>
<path class="st2" d="M299.9,384c-0.5,0-1.1,0-1.6-0.1c-90.5-7-163.7-80.2-170.3-170.2c-0.4-5.6,1.5-11.1,5.3-15.2
	c3.7-4,8.8-6.3,14.4-6.3l36.8-0.3c9.2,0,17.1,6.1,19.3,14.9l7.7,30.5c2,7.7-0.9,15.8-7.4,20.6l-13.3,9.9
	c12.3,21.8,30.6,40.2,52.5,52.8l10.3-13.6c4.8-6.3,12.9-9.2,20.6-7.3l30.7,7.6c8.8,2.2,15,10.1,15,19.1v37.7
	c0,5.5-2.2,10.6-6.3,14.4C310,382.1,305,384,299.9,384L299.9,384z"/>
</svg>
