<svg enable-background="new 0 0 32 32" height="512" viewBox="0 0 32 32" width="512" xmlns="http://www.w3.org/2000/svg"><path d="m26 32h-20c-3.314 0-6-2.686-6-6v-20c0-3.314 2.686-6 6-6h20c3.314 0 6 2.686 6 6v20c0 3.314-2.686 6-6 6z" fill="#f5e6fe"/><g fill="#d9a4fc"><path d="m23.5 16.667c-.276 0-.5-.224-.5-.5 0-1.919-.744-3.719-2.096-5.071-1.351-1.352-3.152-2.096-5.071-2.096-.276 0-.5-.224-.5-.5s.224-.5.5-.5c2.186 0 4.238.848 5.778 2.389 1.54 1.54 2.389 3.592 2.389 5.778 0 .276-.224.5-.5.5z"/><path d="m21.309 16.667c-.276 0-.5-.224-.5-.5 0-1.333-.517-2.583-1.455-3.521s-2.188-1.455-3.521-1.455c-.276 0-.5-.224-.5-.5s.224-.5.5-.5c1.6 0 3.101.621 4.228 1.748s1.748 2.629 1.748 4.228c0 .276-.224.5-.5.5z"/><path d="m19.119 16.667c-.001 0-.002 0-.003 0-.276-.002-.499-.227-.497-.503.005-.739-.285-1.438-.814-1.968-.53-.53-1.209-.804-1.968-.814-.277.031-.501-.22-.503-.497-.002-.276.221-.502.497-.503 1.036.008 1.961.387 2.682 1.107s1.114 1.673 1.107 2.681c-.003.275-.226.497-.501.497z"/></g><path d="m18.743 24c-.033 0-.066-.001-.099-.004-5.658-.438-10.232-5.01-10.641-10.635-.025-.348.095-.694.329-.948.234-.253.552-.394.897-.396l2.3-.017c.574 0 1.068.384 1.206.934l.48 1.907c.122.484-.059.99-.46 1.289l-.829.618c.766 1.361 1.911 2.513 3.282 3.299l.644-.852c.299-.396.804-.576 1.29-.456l1.92.477c.552.137.938.629.938 1.196v2.354c0 .345-.139.664-.393.898-.233.216-.544.336-.864.336z" fill="#be63f9"/></svg>