<svg id="Bold" enable-background="new 0 0 32 32" height="512" viewBox="0 0 32 32" width="512" xmlns="http://www.w3.org/2000/svg"><path d="m26 32h-20c-3.314 0-6-2.686-6-6v-20c0-3.314 2.686-6 6-6h20c3.314 0 6 2.686 6 6v20c0 3.314-2.686 6-6 6z" fill="#e3f8fa"/><path d="m11.356 21.081c-.381 1.162.533 2.35 1.741 2.244.856-.076 1.505-.788 1.538-1.636.101-1.96-2.668-2.488-3.279-.608zm2.088.519c0 .306-.212.555-.472.555-.341 0-.553-.408-.444-.74.173-.572.893-.444.916.162z" fill="#8ce1eb"/><path d="m20.298 21.006c-.26-.693-.951-1.16-1.716-1.092-.953.083-1.621.951-1.532 1.853.08.941.895 1.639 1.82 1.558 1.114-.098 1.831-1.255 1.428-2.319zm-1.553 1.15c-.629 0-.627-1.109 0-1.109.623 0 .624 1.109 0 1.109z" fill="#8ce1eb"/><path d="m12.413 10.306c-3.834 3.082-1.218 7.102-3.572 7.102-.694 0-1.084.806-.671 1.366.739.996 1.671 1.659 2.668 2.099.842-2.475 4.478-1.759 4.353.839.237.006 1.062.006 1.299.006-.058-1.308.958-2.376 2.239-2.376.897 0 1.715.558 2.061 1.395 1.285-.774 2.405-2.02 2.883-3.496 2.055-6.328-5.827-11.296-11.26-6.935zm6.248 2.514c.446 0 .806.366.806.82 0 .451-.36.818-.806.818-.444 0-.806-.366-.806-.818 0-.454.362-.82.806-.82zm-3.847.128c.444 0 .806.366.806.818 0 .453-.362.82-.806.82s-.806-.366-.806-.82c0-.451.363-.818.806-.818zm4.871 3.154c-.247 1.056-1.334 2.014-2.851 2.055-1.312.089-2.774-.912-2.924-2.246-.067-.56.77-.657.832-.098.102.908 1.17 1.517 2.069 1.492 1.144-.03 1.9-.727 2.056-1.4.054-.229.279-.37.505-.317.226.055.365.284.313.514z" fill="#26c6da"/></svg>