<?xml version="1.0" encoding="utf-8"?>
<!-- Generator: Adobe Illustrator 22.0.1, SVG Export Plug-In . SVG Version: 6.00 Build 0)  -->
<svg version="1.1" id="Bold" xmlns="http://www.w3.org/2000/svg" xmlns:xlink="http://www.w3.org/1999/xlink" x="0px" y="0px"
	 viewBox="0 0 512 512" style="enable-background:new 0 0 512 512;" xml:space="preserve">
<style type="text/css">
	.st0{fill:#E3F8FA;}
	.st1{fill:#8CE1EB;}
	.st2{fill:#26C6DA;}
</style>
<path class="st0" d="M256,512L256,512C114.6,512,0,397.4,0,256v0C0,114.6,114.6,0,256,0h0c141.4,0,256,114.6,256,256v0
	C512,397.4,397.4,512,256,512z"/>
<path class="st1" d="M314.7,280.6l-0.1,0.8c-23.5-11.7-25.9-13.2-28.9-8.7c-2.1,3.2-8.2,10.3-10.1,12.4c-1.9,2.1-3.7,2.2-6.9,0.8
	c-3.2-1.6-13.5-5-25.6-15.8c-9.5-8.5-15.8-18.9-17.7-22.1c-3.1-5.4,3.4-6.2,9.4-17.4c1.1-2.2,0.5-4-0.3-5.6
	c-0.8-1.6-7.2-17.3-9.8-23.5c-2.6-6.2-5.2-5.4-7.2-5.4c-6.1-0.5-10.6-0.4-14.6,3.7c-17.2,18.9-12.9,38.4,1.9,59.2
	c28.9,37.9,44.4,44.9,72.6,54.5c7.6,2.4,14.6,2.1,20,1.3c6.1-1,18.8-7.7,21.5-15.2c2.7-7.5,2.7-13.8,1.9-15.2
	C320,282.8,317.9,282,314.7,280.6L314.7,280.6z"/>
<path class="st2" d="M346.9,164.8c-82-79.3-217.8-21.8-217.8,90.1c0,22.4,5.9,44.2,17,63.4L128,384l67.6-17.6
	C279.9,411.9,384,351.5,384,254.9c0-33.9-13.2-65.8-37.3-89.7L346.9,164.8z M362.7,254.6c-0.1,81.4-89.4,132.3-160.1,90.7l-3.8-2.3
	l-40,10.4l10.7-38.9l-2.5-4c-44-70,6.5-161.5,89.9-161.5c28.3,0,54.9,11,74.9,31C351.7,199.8,362.7,226.4,362.7,254.6L362.7,254.6z"
	/>
</svg>
