<svg id="Capa_1" enable-background="new 0 0 510 510" height="512" viewBox="0 0 510 510" width="512" xmlns="http://www.w3.org/2000/svg" xmlns:xlink="http://www.w3.org/1999/xlink"><linearGradient id="lg1"><stop offset="0" stop-color="#9b62cd"/><stop offset=".3003" stop-color="#985dcb"/><stop offset=".6716" stop-color="#8f4ec7"/><stop offset="1" stop-color="#833ac1"/></linearGradient><linearGradient id="SVGID_1_" gradientTransform="matrix(1 0 0 -1 0 512)" gradientUnits="userSpaceOnUse" x1="562.177" x2="476.465" xlink:href="#lg1" y1="-92.226" y2="-6.515"/><linearGradient id="SVGID_2_" gradientTransform="matrix(1 0 0 -1 0 512)" gradientUnits="userSpaceOnUse" x1="177.619" x2="389.949" y1="381.634" y2="-61.933"><stop offset="0" stop-color="#f8f6fb"/><stop offset="1" stop-color="#efdcfb"/></linearGradient><linearGradient id="lg2"><stop offset="0" stop-color="#ffd945"/><stop offset=".3043" stop-color="#ffcd3e"/><stop offset=".8558" stop-color="#ffad2b"/><stop offset="1" stop-color="#ffa325"/></linearGradient><linearGradient id="SVGID_3_" gradientTransform="matrix(1 0 0 -1 0 512)" gradientUnits="userSpaceOnUse" x1="66.27" x2="134.262" xlink:href="#lg2" y1="454.207" y2="454.207"/><linearGradient id="lg3"><stop offset="0" stop-color="#f35227" stop-opacity="0"/><stop offset="1" stop-color="#f35227"/></linearGradient><linearGradient id="SVGID_4_" gradientTransform="matrix(1 0 0 -1 0 512)" gradientUnits="userSpaceOnUse" x1="120.811" x2="76.21" xlink:href="#lg3" y1="470.08" y2="489.795"/><linearGradient id="SVGID_5_" gradientTransform="matrix(1 0 0 -1 0 512)" gradientUnits="userSpaceOnUse" x1="96.807" x2="114.26" xlink:href="#lg3" y1="413.794" y2="381.474"/><linearGradient id="SVGID_6_" gradientTransform="matrix(1 0 0 -1 0 512)" gradientUnits="userSpaceOnUse" x1="107.156" x2="175.148" xlink:href="#lg2" y1="454.207" y2="454.207"/><linearGradient id="SVGID_7_" gradientTransform="matrix(1 0 0 -1 0 512)" gradientUnits="userSpaceOnUse" x1="164.828" x2="129.276" xlink:href="#lg3" y1="467.427" y2="487.142"/><linearGradient id="SVGID_8_" gradientTransform="matrix(1 0 0 -1 0 512)" gradientUnits="userSpaceOnUse" x1="140.777" x2="156.29" xlink:href="#lg3" y1="410.49" y2="390.775"/><linearGradient id="SVGID_9_" gradientTransform="matrix(1 0 0 -1 0 512)" gradientUnits="userSpaceOnUse" x1="319.66" x2="387.652" xlink:href="#lg2" y1="454.207" y2="454.207"/><linearGradient id="SVGID_10_" gradientTransform="matrix(1 0 0 -1 0 512)" gradientUnits="userSpaceOnUse" x1="368.535" x2="339.448" xlink:href="#lg3" y1="472.578" y2="485.506"/><linearGradient id="SVGID_11_" gradientTransform="matrix(1 0 0 -1 0 512)" gradientUnits="userSpaceOnUse" x1="352.692" x2="375.963" xlink:href="#lg3" y1="411.846" y2="388.252"/><linearGradient id="SVGID_12_" gradientTransform="matrix(1 0 0 -1 0 512)" gradientUnits="userSpaceOnUse" x1="360.547" x2="428.539" xlink:href="#lg2" y1="454.207" y2="454.207"/><linearGradient id="SVGID_13_" gradientTransform="matrix(1 0 0 -1 0 512)" gradientUnits="userSpaceOnUse" x1="413.358" x2="364.232" xlink:href="#lg3" y1="470.722" y2="493.346"/><linearGradient id="SVGID_14_" gradientTransform="matrix(1 0 0 -1 0 512)" gradientUnits="userSpaceOnUse" x1="388.935" x2="414.468" xlink:href="#lg3" y1="417.529" y2="378.422"/><linearGradient id="lg4"><stop offset="0" stop-color="#efdcfb" stop-opacity="0"/><stop offset=".4856" stop-color="#baaad6" stop-opacity=".486"/><stop offset="1" stop-color="#8679b2"/></linearGradient><linearGradient id="SVGID_15_" gradientTransform="matrix(1 0 0 -1 0 512)" gradientUnits="userSpaceOnUse" x1="318.58" x2="38.852" xlink:href="#lg4" y1="115.848" y2="305.889"/><linearGradient id="SVGID_16_" gradientTransform="matrix(1 0 0 -1 0 512)" gradientUnits="userSpaceOnUse" x1="436.824" x2="244.359" xlink:href="#lg4" y1="129.431" y2="287.474"/><linearGradient id="SVGID_17_" gradientTransform="matrix(1 0 0 -1 0 512)" gradientUnits="userSpaceOnUse" x1="191.175" x2="316.475" xlink:href="#lg1" y1="220.694" y2="83.347"/><linearGradient id="SVGID_18_" gradientTransform="matrix(1 0 0 -1 0 512)" gradientUnits="userSpaceOnUse" x1="270.905" x2="396.205" xlink:href="#lg1" y1="293.43" y2="156.083"/><linearGradient id="SVGID_19_" gradientTransform="matrix(1 .002 .002 -1 94.567 661.79)" gradientUnits="userSpaceOnUse" x1="-21.022" x2="3.766" y1="301.794" y2="268.743"><stop offset="0" stop-color="#ff819c"/><stop offset=".2594" stop-color="#ff7e9a"/><stop offset=".4757" stop-color="#fe7396"/><stop offset=".6765" stop-color="#fc628e"/><stop offset=".8668" stop-color="#fa4a83"/><stop offset="1" stop-color="#f83479"/></linearGradient><linearGradient id="SVGID_20_" gradientTransform="matrix(1 .002 .002 -1 94.567 661.79)" gradientUnits="userSpaceOnUse" x1="285.909" x2="310.697" y1="508.686" y2="475.636"><stop offset="0" stop-color="#00adfb"/><stop offset="1" stop-color="#3f3ced"/></linearGradient><linearGradient id="SVGID_21_" gradientTransform="matrix(1 .002 .002 -1 94.567 661.79)" gradientUnits="userSpaceOnUse" x1="305.557" x2="330.345" xlink:href="#lg2" y1="240.552" y2="207.502"/><linearGradient id="SVGID_22_" gradientTransform="matrix(1 .002 .002 -1 94.567 661.79)" gradientUnits="userSpaceOnUse" x1="-16.208" x2="8.58" y1="507.677" y2="474.626"><stop offset="0" stop-color="#a3ffff"/><stop offset=".2174" stop-color="#a0fdff"/><stop offset=".3747" stop-color="#97f8fd"/><stop offset=".5132" stop-color="#87effb"/><stop offset=".6408" stop-color="#71e3f8"/><stop offset=".7609" stop-color="#54d3f4"/><stop offset=".8754" stop-color="#30c0ef"/><stop offset=".9836" stop-color="#07a9e9"/><stop offset="1" stop-color="#00a5e8"/></linearGradient><linearGradient id="SVGID_23_" gradientTransform="matrix(1 0 0 -1 0 512)" gradientUnits="userSpaceOnUse" x1="88.522" x2="132.072" y1="96.545" y2="52.995"><stop offset="0" stop-color="#92f37f"/><stop offset="1" stop-color="#4ab272"/></linearGradient><linearGradient id="SVGID_24_" gradientTransform="matrix(1 0 0 -1 0 512)" gradientUnits="userSpaceOnUse" x1="259.412" x2="311.812" y1="388.151" y2="335.75"><stop offset="0" stop-color="#ff7044"/><stop offset="1" stop-color="#f82814"/></linearGradient><linearGradient id="SVGID_25_" gradientTransform="matrix(1 0 0 -1 0 512)" gradientUnits="userSpaceOnUse" x1="247.404" x2="247.404" xlink:href="#lg4" y1="49.504" y2="13.615"/><g><path d="m478.103 115.848c-2.898-6.748-7.866-12.512-14.153-16.584-6.286-4.072-13.913-6.461-22.128-6.461h-364.936c-21.605 0-39.124 16.492-39.124 36.83v343.537c0 15.456 10.121 28.686 24.47 34.142 1.795.693 3.954 1.378 6.436 1.884 3.137.639 5.938.817 8.217.804h364.938c21.605 0 39.124-16.492 39.124-36.83v-343.537c.13-1.726.128-4.048-.382-6.72-.578-3.026-1.601-5.419-2.462-7.065z" fill="url(#SVGID_1_)"/><path d="m462.955 81.912c-2.856-7.064-7.751-13.097-13.946-17.359-6.194-4.262-13.709-6.763-21.804-6.763h-359.601c-21.289 0-38.552 17.263-38.552 38.552v359.601c0 16.179 9.973 30.028 24.112 35.739l.011.011c1.869.753 4.2 1.523 6.936 2.065 2.861.567 5.412.735 7.491.736h359.601c21.289 0 38.552-17.263 38.552-38.552v-359.601c-.058-1.897-.241-4.05-.646-6.395-.539-3.121-1.339-5.819-2.154-8.034zm-361.641 33.678c-8.685 0-15.717-7.043-15.717-15.728s7.032-15.717 15.717-15.717 15.728 7.032 15.728 15.717-7.043 15.728-15.728 15.728zm40.885 0c-8.674 0-15.717-7.043-15.717-15.728s7.043-15.717 15.717-15.717c8.685 0 15.728 7.032 15.728 15.717s-7.043 15.728-15.728 15.728zm212.504 0c-8.674 0-15.717-7.043-15.717-15.728s7.043-15.717 15.717-15.717c8.685 0 15.728 7.032 15.728 15.717s-7.043 15.728-15.728 15.728zm40.896 0c-8.685 0-15.728-7.043-15.728-15.728s7.043-15.717 15.728-15.717c8.674 0 15.717 7.032 15.717 15.717s-7.043 15.728-15.717 15.728z" fill="url(#SVGID_2_)"/><path d="m100.266 115.587c-19.698 0-33.996-24.305-33.996-57.793s14.297-57.794 33.996-57.794 33.996 24.306 33.996 57.794h-26.839c0-13.991-3.402-23.754-6.159-28.379-.449-.754-1.547-.754-1.996 0-2.756 4.625-6.159 14.388-6.159 28.379 0 15.702 4.286 26.078 7.134 29.843 1.777-2.361 4.918-3.226 7.606-2.004 13.954 6.347 11.419 27.084-3.699 29.627-1.435.242-2.747.327-3.884.327z" fill="url(#SVGID_3_)"/><path d="m133.064 57.794c0-22.154-8.947-40.113-19.983-40.113-8.222 0-15.281 9.971-18.348 24.214 1.238-5.67 2.988-9.884 4.535-12.48.449-.754 1.547-.754 1.996 0 2.756 4.625 6.159 14.388 6.159 28.379z" fill="url(#SVGID_4_)"/><path d="m100.266 115.587c1.137 0 2.449-.085 3.885-.327 15.117-2.544 17.653-23.28 3.699-29.627-2.687-1.222-5.829-.357-7.606 2.004-1.442-1.906-3.251-5.513-4.688-10.642h-27.57c4.348 23.179 16.598 38.592 32.28 38.592z" fill="url(#SVGID_5_)"/><path d="m141.152 115.587c-19.698 0-33.996-24.305-33.996-57.793s14.298-57.794 33.996-57.794 33.996 24.306 33.996 57.794h-26.839c0-13.991-3.402-23.754-6.159-28.379-.449-.754-1.547-.754-1.996 0-2.756 4.625-6.159 14.388-6.159 28.379 0 15.702 4.286 26.078 7.134 29.843 1.777-2.361 4.918-3.226 7.606-2.004 13.954 6.347 11.419 27.084-3.699 29.627-1.435.242-2.747.327-3.884.327z" fill="url(#SVGID_6_)"/><path d="m173.95 57.794c0-22.154-8.947-40.113-19.983-40.113-8.222 0-15.281 9.971-18.348 24.214 1.238-5.67 2.988-9.884 4.535-12.48.449-.754 1.547-.754 1.996 0 2.756 4.625 6.159 14.388 6.159 28.379z" fill="url(#SVGID_7_)"/><path d="m141.152 115.587c1.137 0 2.449-.085 3.885-.327 15.117-2.544 17.653-23.28 3.699-29.627-2.687-1.222-5.829-.357-7.606 2.004-1.442-1.906-3.251-5.513-4.688-10.642h-27.569c4.347 23.179 16.597 38.592 32.279 38.592z" fill="url(#SVGID_8_)"/><path d="m353.656 115.587c-19.698 0-33.996-24.305-33.996-57.793s14.298-57.794 33.996-57.794 33.996 24.306 33.996 57.794h-26.839c0-13.991-3.402-23.754-6.159-28.379-.449-.754-1.547-.754-1.996 0-2.756 4.625-6.159 14.388-6.159 28.379 0 15.702 4.286 26.078 7.134 29.843 1.777-2.361 4.918-3.226 7.606-2.004 13.954 6.347 11.419 27.084-3.699 29.627-1.434.242-2.746.327-3.884.327z" fill="url(#SVGID_9_)"/><path d="m386.455 57.794c0-22.154-8.947-40.113-19.983-40.113-8.222 0-15.281 9.971-18.348 24.214 1.238-5.67 2.988-9.884 4.535-12.48.449-.754 1.547-.754 1.996 0 2.756 4.625 6.159 14.388 6.159 28.379z" fill="url(#SVGID_10_)"/><path d="m353.656 115.587c1.137 0 2.449-.085 3.885-.327 15.117-2.544 17.653-23.28 3.699-29.627-2.687-1.222-5.829-.357-7.606 2.004-1.442-1.906-3.251-5.513-4.688-10.642h-27.569c4.347 23.179 16.597 38.592 32.279 38.592z" fill="url(#SVGID_11_)"/><path d="m394.543 115.587c-19.698 0-33.996-24.305-33.996-57.793s14.297-57.794 33.996-57.794 33.996 24.306 33.996 57.794h-26.839c0-13.991-3.402-23.754-6.159-28.379-.449-.754-1.547-.754-1.996 0-2.756 4.625-6.159 14.388-6.159 28.379 0 15.702 4.286 26.078 7.134 29.843 1.777-2.361 4.918-3.226 7.606-2.004 13.954 6.347 11.419 27.084-3.699 29.627-1.435.242-2.747.327-3.884.327z" fill="url(#SVGID_12_)"/><path d="m427.341 57.794c0-22.154-8.947-40.113-19.983-40.113-8.222 0-15.281 9.971-18.348 24.214 1.238-5.67 2.988-9.884 4.535-12.48.449-.754 1.547-.754 1.996 0 2.756 4.625 6.159 14.388 6.159 28.379z" fill="url(#SVGID_13_)"/><path d="m394.543 115.587c1.137 0 2.449-.085 3.885-.327 15.117-2.544 17.653-23.28 3.699-29.627-2.687-1.222-5.829-.357-7.606 2.004-1.442-1.906-3.251-5.513-4.688-10.642h-27.569c4.346 23.179 16.596 38.592 32.279 38.592z" fill="url(#SVGID_14_)"/><path d="m260.682 205.26c-12.478-14.863-33.917-20.615-59.234-20.615-54.698 0-72.507 32.12-72.507 56.925 0 9.273 1.066 14.668 7.027 17.479l94.363 95.303c-1.765 15.343-9.976 21.421-28.883 21.421-.958 0-1.914-.017-2.865-.051l-26.851-26.799c-2.62-5.817-9.358-8.132-24.028-8.132-17.491 0-23.533 3.816-23.533 18.127 0 14.128 5.877 30.121 19.5 42.058l93.518 93.518h190.016c21.289 0 38.552-17.263 38.552-38.552v-45.607z" fill="url(#SVGID_15_)"/><path d="m465.756 290.458-96.779-96.779c-3.593-6.053-12.41-9.67-20.282-9.67-3.499 0-6.679.636-9.223 2.226l-41.978 25.441c-6.36 3.816-9.223 10.176-9.223 16.855 0 7.264 3.457 14.524 8.965 17.844l23.791 24.406v131.069c0 4.725 2.676 8.351 6.781 10.882l81.762 81.762h17.635c21.289 0 38.552-17.263 38.552-38.552v-165.484z" fill="url(#SVGID_16_)"/><path d="m230.706 347.151v-6.043c0-21.307-13.039-25.441-30.529-25.441-10.813 0-14.311-9.54-14.311-19.081 0-9.54 3.498-19.081 14.311-19.081 12.084 0 24.805-1.589 24.805-27.349 0-18.445-10.495-22.897-23.533-22.897-15.582 0-23.533 3.817-23.533 16.219 0 10.813-4.77 18.127-23.215 18.127-22.897 0-25.759-4.771-25.759-20.035 0-24.805 17.809-56.925 72.507-56.925 40.388 0 70.918 14.629 70.918 57.561 0 23.215-8.586 44.84-24.487 52.154 18.763 6.997 32.437 20.989 32.437 46.748v6.043c0 52.154-35.935 71.871-80.458 71.871-54.698 0-75.687-33.391-75.687-60.105 0-14.311 6.042-18.127 23.533-18.127 20.353 0 25.441 4.452 25.441 16.537 0 14.946 13.992 18.444 28.303 18.444 21.625.001 29.257-7.949 29.257-28.62z" fill="url(#SVGID_17_)"/><path d="m321.027 239.98-9.223 5.724c-2.862 1.908-5.724 2.544-7.95 2.544-9.223 0-15.583-9.859-15.583-19.717 0-6.678 2.863-13.039 9.223-16.855l41.978-25.441c2.544-1.59 5.724-2.226 9.223-2.226 10.176 0 21.942 6.042 21.942 15.583v202.257c0 10.176-12.403 15.265-24.806 15.265-12.402 0-24.805-5.088-24.805-15.265v-161.869z" fill="url(#SVGID_18_)"/><path d="m103.761 372.634c-7.857 5.121-14.562 11.865-19.639 19.755-1.142 1.774-3.777 1.769-4.912-.009-5.048-7.909-11.727-14.677-19.566-19.826-1.74-1.143-1.735-3.742.009-4.878 7.857-5.121 14.561-11.865 19.638-19.755 1.142-1.774 3.777-1.769 4.912.009 5.048 7.909 11.728 14.677 19.567 19.826 1.739 1.143 1.735 3.741-.009 4.878z" fill="url(#SVGID_19_)"/><path d="m411.064 166.294c-7.857 5.121-14.562 11.865-19.639 19.755-1.142 1.774-3.777 1.769-4.912-.009-5.048-7.909-11.727-14.677-19.566-19.826-1.74-1.143-1.735-3.742.009-4.878 7.857-5.121 14.561-11.865 19.638-19.755 1.142-1.774 3.777-1.769 4.912.009 5.048 7.909 11.728 14.677 19.567 19.826 1.74 1.142 1.735 3.741-.009 4.878z" fill="url(#SVGID_20_)"/><path d="m430.229 434.463c-7.857 5.121-14.562 11.865-19.639 19.755-1.142 1.774-3.777 1.769-4.912-.009-5.048-7.909-11.727-14.677-19.566-19.826-1.74-1.143-1.735-3.742.009-4.878 7.857-5.121 14.561-11.865 19.638-19.755 1.142-1.774 3.777-1.769 4.912.009 5.048 7.909 11.728 14.677 19.567 19.826 1.74 1.143 1.735 3.741-.009 4.878z" fill="url(#SVGID_21_)"/><path d="m108.945 166.759c-7.857 5.121-14.562 11.865-19.639 19.755-1.142 1.774-3.777 1.769-4.912-.009-5.048-7.909-11.727-14.677-19.566-19.826-1.74-1.143-1.735-3.742.009-4.878 7.857-5.121 14.561-11.865 19.638-19.755 1.142-1.774 3.777-1.769 4.912.009 5.048 7.909 11.728 14.677 19.567 19.826 1.74 1.143 1.735 3.742-.009 4.878z" fill="url(#SVGID_22_)"/><path d="m101.142 466.747c-8.071-12.385-18.702-22.953-31.139-30.956-2.797-1.8-2.789-5.953.014-7.742 12.466-7.957 23.135-18.486 31.252-30.842 1.802-2.743 5.898-2.735 7.689.014 8.071 12.385 18.702 22.953 31.139 30.955 2.797 1.799 2.789 5.953-.014 7.742-12.466 7.957-23.135 18.486-31.252 30.842-1.801 2.743-5.897 2.736-7.689-.013z" fill="url(#SVGID_23_)"/><path d="m274.596 185.564c-9.712-14.902-22.503-27.618-37.468-37.247-3.365-2.165-3.356-7.163.017-9.316 14.999-9.574 27.837-22.243 37.603-37.11 2.168-3.3 7.097-3.291 9.252.017 9.712 14.903 22.503 27.618 37.468 37.246 3.365 2.165 3.356 7.163-.017 9.316-14.999 9.575-27.837 22.243-37.603 37.11-2.167 3.301-7.096 3.292-9.252-.016z" fill="url(#SVGID_24_)"/><g fill="url(#SVGID_25_)"><path d="m67.603 494.491h359.601c21.289 0 38.552-17.263 38.552-38.552v-36.919h-436.704v.002 36.919c0 16.179 9.973 30.028 24.112 35.739l.011.011c1.853.748 4.158 1.511 6.859 2.052 2.893.579 5.472.749 7.569.748z"/><path d="m67.603 494.491h359.601c21.289 0 38.552-17.263 38.552-38.552v-36.919h-436.704v.002 36.919c0 16.179 9.973 30.028 24.112 35.739l.011.011c1.853.748 4.158 1.511 6.859 2.052 2.893.579 5.472.749 7.569.748z"/></g></g></svg>