<svg id="Capa_1" enable-background="new 0 0 512 512" height="512" viewBox="0 0 512 512" width="512" xmlns="http://www.w3.org/2000/svg" xmlns:xlink="http://www.w3.org/1999/xlink"><linearGradient id="SVGID_1_" gradientUnits="userSpaceOnUse" x1="143.96" x2="195.602" y1="289.626" y2="289.626"><stop offset="0" stop-color="#cc8241"/><stop offset="1" stop-color="#dea861"/></linearGradient><linearGradient id="SVGID_2_" gradientUnits="userSpaceOnUse" x1="83.308" x2="276.704" y1="59.903" y2="171.56"><stop offset="0" stop-color="#dea861"/><stop offset="1" stop-color="#ebcba0"/></linearGradient><linearGradient id="lg1"><stop offset="0" stop-color="#c5baeb"/><stop offset="1" stop-color="#d7d1eb"/></linearGradient><linearGradient id="SVGID_3_" gradientUnits="userSpaceOnUse" x1="350.029" x2="433.282" xlink:href="#lg1" y1="377.6" y2="233.401"/><linearGradient id="lg2"><stop offset="0" stop-color="#236568"/><stop offset="1" stop-color="#2f878a"/></linearGradient><linearGradient id="SVGID_4_" gradientUnits="userSpaceOnUse" x1="282.943" x2="389.1" xlink:href="#lg2" y1="346.99" y2="346.99"/><linearGradient id="SVGID_5_" gradientUnits="userSpaceOnUse" x1="374.508" x2="483.62" xlink:href="#lg2" y1="281.475" y2="281.475"/><linearGradient id="SVGID_6_" gradientUnits="userSpaceOnUse" x1="273.705" x2="303.517" xlink:href="#lg1" y1="420.412" y2="368.777"/><g><g><g><path d="m375.938 346.493v-234.225l-375.938 16.121v234.225c-.001 5.367 2.655 10.734 7.967 13.801l148.924 85.982c10.592 6.115 23.641 6.115 34.233 0l176.847-102.103c5.312-3.067 7.967-8.434 7.967-13.801z" fill="url(#SVGID_1_)"/><path d="m7.967 114.59 176.847-102.103c10.591-6.115 23.641-6.115 34.232 0l148.924 85.982c10.623 6.133 10.623 21.466 0 27.599l-176.846 102.102c-10.592 6.115-23.641 6.115-34.233 0l-148.924-85.981c-10.623-6.133-10.623-21.466 0-27.599z" fill="url(#SVGID_2_)"/><path d="m65.309 81.484 189.941 109.663 50.385-29.09-189.942-109.663z" fill="#dea861"/><g fill="#cc8241"><path d="m95.423 64.082 189.942 109.663-9.87 5.698-189.942-109.663z"/><path d="m255.25 191.147v41.609l50.385-29.089v-41.61z"/></g></g></g><g><path d="m471.2 146.948s-.003-.007-.003-.007l-.065-.038c-1.713-1.115-3.465-2.151-5.263-3.09l-22.504-13.212.005.016c-22.255-13.144-51.378-12.114-83.22 6.271-5.157 2.977-9.338 10.965-9.338 17.842 0 3.929 1.368 6.637 3.5 7.688l25.065 14.644c1.644.974 3.792.909 6.15-.452 20.987-12.117 40.588-15.388 57.171-11.074 15.75 15.897 25.25 42.626 25.25 77.747 0 79.254-48.357 171.651-107.798 205.969-21.005 12.127-40.608 15.364-57.198 11.03-11.674-11.807-19.916-29.561-23.384-52.29l24.894 10.004c4.157 1.669 10.001-2.899 13.053-10.202 3.053-7.305 2.158-14.581-1.999-16.251l-40.927-16.445c-.436-.266-.908-.456-1.412-.567l-7.43-2.985-36.583 87.539c-3.053 7.305-2.158 14.58 1.999 16.251 1.665.668 3.601.337 5.519-.771 2.871-1.658 5.705-5.054 7.535-9.432l17.141-41.017c11.271 71.182 62.658 100.37 124.168 64.857 69.738-40.263 126.474-148.668 126.474-241.652 0-48.954-15.731-84.012-40.8-100.373z" fill="url(#SVGID_3_)"/><path d="m389.1 363.971-24.193-13.965 13.75-77.746-24.215-13.981c-6.452-4.535-16.604-3.506-28.672 3.462-15.063 8.697-29.536 24.928-42.827 45.597l10.189 20.701 23.217 13.402-30.453 59.3.148 23.742 24.193 13.965z" fill="url(#SVGID_4_)"/><path d="m470.329 273.373-.001-13.799-24.193-13.964 8.981-29.039-24.193-13.965-25.696 14.836-30.719 101.816v25.976l24.193 12.193 22.623-13.046v1.998l24.193 13.965 38.103-79.299z" fill="url(#SVGID_5_)"/><path d="m357.791 312.931c0-7.483-4.283-9.342-11.816-4.993-8.417 4.86-19.05 17.695-28.651 34.067l-10.189-20.701c13.291-20.67 27.764-36.901 42.827-45.598 20.972-12.108 36.183-6.319 36.183 15.537 0 14.965-8.566 35.467-20.085 57.674l-21.267 40.633 44.305-25.58v28.946l-78.862 45.531-.148-23.742 37.66-73.333c5.761-11.199 10.043-22.535 10.043-28.441z" fill="#06daae"/><path d="m455.116 216.571-28.797 97.556 19.346-11.169-.147-29.059 24.811-14.325v29.144l13.291-7.674v27.369l-13.291 7.673v29.931l-24.811 14.325v-29.932l-46.816 27.029v-24.219l30.719-101.816z" fill="#06daae"/><path d="m268.072 414.003 49.267-21.142-25.678-15.137c-.447-.428-.951-.772-1.523-1.002l-40.927-16.445c-.436-.266-.908-.456-1.412-.568l-7.43-2.985-36.583 87.539c-3.052 7.305-2.158 14.58 1.999 16.251l25.377 14.82 14.651-31.812c7.629 17.042 18.553 29.702 31.898 37.325l.04.066 23.289 13.575z" fill="url(#SVGID_6_)"/><path d="m385.526 151.708c-5.157 2.977-9.338 10.965-9.338 17.841s4.181 10.036 9.338 7.059c59.441-34.318 107.798 2.24 107.798 81.494s-48.358 171.651-107.798 205.969c-52.658 30.402-96.612 5.173-105.959-56.08l24.894 10.004c4.157 1.669 10.001-2.899 13.054-10.202 3.052-7.305 2.158-14.581-1.999-16.251l-40.927-16.445c-.436-.266-.908-.456-1.412-.568l-7.43-2.985-36.583 87.54c-3.053 7.304-2.158 14.58 1.999 16.251 1.665.669 3.601.337 5.519-.771 2.871-1.658 5.705-5.054 7.535-9.432l17.141-41.017c11.271 71.182 62.658 100.37 124.168 64.857 69.738-40.262 126.474-148.667 126.474-241.651s-56.736-135.876-126.474-95.613z" fill="#e9e5f6"/></g></g></svg>