<svg id="Capa_1" enable-background="new 0 0 512 512" height="512" viewBox="0 0 512 512" width="512" xmlns="http://www.w3.org/2000/svg" xmlns:xlink="http://www.w3.org/1999/xlink"><linearGradient id="lg1"><stop offset="0" stop-color="#ab2c37"/><stop offset="1" stop-color="#ff7a85"/></linearGradient><linearGradient id="SVGID_1_" gradientUnits="userSpaceOnUse" x1="452.021" x2="512" xlink:href="#lg1" y1="92.058" y2="92.058"/><linearGradient id="SVGID_2_" gradientUnits="userSpaceOnUse" x1="50.909" x2="88.622" xlink:href="#lg1" y1="342.763" y2="277.443"/><linearGradient id="SVGID_3_" gradientTransform="matrix(.866 -.5 0 1.155 -47.586 593.277)" gradientUnits="userSpaceOnUse" x1="79.32" x2="232.504" y1="-155.711" y2="-155.711"><stop offset="0" stop-color="#ff4757"/><stop offset="1" stop-color="#ff7a85"/></linearGradient><linearGradient id="SVGID_4_" gradientUnits="userSpaceOnUse" x1="73.596" x2="88.514" y1="315.924" y2="290.085"><stop offset="0" stop-color="#c5baeb"/><stop offset="1" stop-color="#d7d1eb"/></linearGradient><g><path d="m452.021 83.051 59.979-34.629-11.656 36.924 11.656 15.719-59.979 34.629z" fill="url(#SVGID_1_)"/><g><g><path d="m85.107 429.594c-1.928 0-3.813-.774-5.171-2.133-1.358-1.358-2.132-3.242-2.132-5.171 0-1.928.774-3.797 2.132-5.156 1.372-1.359 3.242-2.147 5.171-2.147 1.913 0 3.797.789 5.156 2.147 1.372 1.359 2.147 3.243 2.147 5.156 0 1.928-.789 3.813-2.147 5.171-1.359 1.36-3.243 2.133-5.156 2.133z" fill="#7662bd"/></g><g><path d="m103.234 411.819c-2.015-3.49-.819-7.96 2.673-9.976 3.49-2.016 7.959-.817 9.975 2.673 2.017 3.505.833 7.961-2.672 9.976-1.14.672-2.396.978-3.637.978-2.528 0-4.981-1.299-6.339-3.651zm24.465-14.124c-2.016-3.491-.819-7.96 2.673-9.976 3.49-2.016 7.959-.818 9.975 2.673 2.017 3.505.819 7.961-2.672 9.976-1.154.672-2.411.979-3.637.979-2.528-.001-4.981-1.301-6.339-3.652zm24.465-14.11c-2.015-3.505-.819-7.975 2.673-9.99 3.49-2.016 7.959-.818 9.975 2.673 2.017 3.505.819 7.961-2.672 9.99-1.154.658-2.411.979-3.651.979-2.513-.001-4.981-1.315-6.325-3.652zm24.466-14.124c-2.031-3.505-.833-7.96 2.657-9.99 3.506-2.016 7.961-.818 9.99 2.673 2.017 3.505.805 7.975-2.672 9.991-1.154.658-2.411.978-3.652.978-2.526-.001-4.979-1.315-6.323-3.652zm24.45-14.124c-2.016-3.505-.817-7.96 2.673-9.976 3.492-2.015 7.961-.818 9.976 2.673 2.015 3.491.819 7.961-2.673 9.976-1.138.658-2.395.979-3.636.979-2.528-.001-4.981-1.315-6.34-3.652zm24.465-14.125c-2.016-3.491-.817-7.961 2.673-9.976 3.492-2.015 7.961-.818 9.976 2.673 2.015 3.491.819 7.961-2.673 9.976-1.154.657-2.409.978-3.651.978-2.512.001-4.981-1.313-6.325-3.651zm24.451-14.124c-2.001-3.491-.803-7.961 2.673-9.976 3.506-2.016 7.975-.818 9.99 2.673 2.016 3.491.819 7.96-2.673 9.976-1.154.657-2.409.979-3.652.979-2.525 0-4.98-1.315-6.338-3.652zm24.466-14.124c-2.015-3.491-.817-7.961 2.673-9.976 3.49-2.015 7.961-.818 9.976 2.673 2.016 3.49.817 7.96-2.673 9.975-1.14.673-2.395.979-3.637.979-2.527.001-4.981-1.314-6.339-3.651zm24.465-14.125c-2.016-3.49-.817-7.96 2.673-9.975 3.49-2.016 7.961-.818 9.976 2.672 2.016 3.491.817 7.961-2.673 9.976-1.154.672-2.411.979-3.637.979-2.526 0-4.981-1.299-6.339-3.652zm24.466-14.124c-2.016-3.49-.833-7.96 2.673-9.976 3.49-2.016 7.961-.817 9.976 2.673 2.016 3.491.817 7.961-2.673 9.976-1.154.672-2.411.978-3.652.978-2.526.001-4.981-1.299-6.324-3.651zm24.465-14.124c-2.016-3.491-.833-7.96 2.659-9.976 3.505-2.016 7.961-.818 9.99 2.673 2.016 3.491.803 7.961-2.673 9.976-1.154.672-2.411.978-3.651.978-2.527.001-4.981-1.299-6.325-3.651zm24.451-14.124c-2.016-3.491-.819-7.946 2.673-9.976 3.49-2.016 7.961-.818 9.976 2.673 2.016 3.491.817 7.961-2.673 9.976-1.14.672-2.411.979-3.637.979-2.526 0-4.981-1.301-6.339-3.652zm24.466-14.124c-2.016-3.491-.819-7.946 2.673-9.962 3.49-2.03 7.961-.817 9.976 2.673 2.015 3.491.817 7.946-2.673 9.962-1.154.672-2.411.993-3.651.993-2.513 0-4.982-1.315-6.325-3.666zm24.451-14.11c-2.016-3.505-.819-7.96 2.673-9.976 3.505-2.016 7.959-.818 9.99 2.673 2.016 3.491.817 7.961-2.687 9.976-1.14.658-2.396.979-3.637.979-2.528 0-4.981-1.315-6.339-3.652z" fill="#7662bd"/></g><g><path d="m452.016 217.761c-1.914 0-3.798-.774-5.156-2.147-1.358-1.358-2.147-3.228-2.147-5.156s.789-3.812 2.147-5.171 3.242-2.132 5.156-2.132c1.927 0 3.811.774 5.171 2.132 1.358 1.373 2.133 3.243 2.133 5.171 0 1.913-.775 3.798-2.133 5.156-1.36 1.373-3.244 2.147-5.171 2.147z" fill="#7662bd"/></g></g><ellipse cx="65.147" cy="435.678" fill="#7662bd" rx="48.565" ry="27.475" transform="matrix(.993 -.121 .121 .993 -52.232 11.082)"/><g><path d="m107.777 269.783 5.033-20.873-21.336-12.318c-10.272-7.119-24.383-6.697-39.845 3.161-28.048 17.882-50.698 61.589-51.6 99.527-.393 16.504 3.271 29.492 9.726 38.071l-.009.014 34.531 44.153c.622.795 1.33 1.39 2.101 1.802l21.403 12.357 20.268-84.07 10.481-25.503-.01-.003c6.141-15.252 9.756-31.576 9.756-46.947 0-3.277-.181-6.392-.499-9.371z" fill="url(#SVGID_2_)"/><path d="m129.381 291.318c0-40.976-25.606-59.193-56.647-39.404-28.048 17.882-50.698 61.59-51.601 99.527-.393 16.503 3.271 29.492 9.727 38.071l-.009.014 34.531 44.153c4.845 6.195 14.877.402 19.722-11.386l34.532-84.027-.009-.003c6.14-15.251 9.754-31.575 9.754-46.945z" fill="url(#SVGID_3_)"/><path d="m114.77 281.358-15.926-9.169-.001.003c-6.287-3.332-14.363-2.857-23.174 2.23-20.047 11.574-36.298 42.625-36.298 69.355 0 14.695 4.919 25.011 12.673 29.41l-.005.012 14.552 8.402z" fill="url(#SVGID_4_)"/><ellipse cx="90.589" cy="331.409" fill="#e9e5f6" rx="55.724" ry="31.526" transform="matrix(.392 -.92 .92 .392 -249.829 285.001)"/></g><ellipse cx="452.021" cy="210.455" fill="#7662bd" rx="48.565" ry="27.475" transform="matrix(.993 -.121 .121 .993 -22.141 56.233)"/><g><path d="m452.022 217.758c-4.034 0-7.303-3.27-7.303-7.303v-130.325c0-4.033 3.269-7.303 7.303-7.303s7.303 3.27 7.303 7.303v130.325c0 4.033-3.27 7.303-7.303 7.303z" fill="#e37a34"/></g></g></svg>