<svg id="Capa_1" enable-background="new 0 0 512 512" height="512" viewBox="0 0 512 512" width="512" xmlns="http://www.w3.org/2000/svg" xmlns:xlink="http://www.w3.org/1999/xlink"><linearGradient id="lg1"><stop offset="0" stop-color="#cc8241"/><stop offset="1" stop-color="#dea861"/></linearGradient><linearGradient id="SVGID_1_" gradientUnits="userSpaceOnUse" x1="256" x2="256" xlink:href="#lg1" y1="512.535" y2="150.45"/><linearGradient id="SVGID_2_" gradientUnits="userSpaceOnUse" x1="264.359" x2="264.359" xlink:href="#lg1" y1="610.544" y2="282.985"/><linearGradient id="SVGID_3_" gradientUnits="userSpaceOnUse" x1="308.389" x2="233.626" y1="260.842" y2="-6.69"><stop offset="0" stop-color="#dea861"/><stop offset=".328" stop-color="#e3b67b"/><stop offset=".7518" stop-color="#e9c596"/><stop offset="1" stop-color="#ebcba0"/></linearGradient><g><path d="m142.682 503.506v-364.055c0-9.158 4.885-17.619 12.816-22.198l201.098-116.104c5.654-3.264 12.722.816 12.722 7.345v364.055c0 9.157-4.885 17.619-12.816 22.198l-201.098 116.104c-5.654 3.265-12.722-.816-12.722-7.345z" fill="url(#SVGID_1_)"/><path d="m256 59.228v393.544l16.718-9.652v-393.544z" fill="url(#SVGID_2_)"/><path d="m356.596 1.149-201.098 116.104c-7.931 4.579-12.816 13.041-12.816 22.198l32.32 35.503c5.426 5.96 14.27 7.336 21.25 3.306l129.881-74.987c9.622-5.555 16.857-14.466 20.318-25.024l22.867-69.756c0-6.528-7.068-10.608-12.722-7.344z" fill="url(#SVGID_3_)"/><path d="m290.557 407.354 60.664-35.025v-43.066l-60.664 35.025z" fill="#ebcba0"/></g></svg>