<svg id="Capa_1" enable-background="new 0 0 512 512" height="512" viewBox="0 0 512 512" width="512" xmlns="http://www.w3.org/2000/svg" xmlns:xlink="http://www.w3.org/1999/xlink"><linearGradient id="lg1"><stop offset="0" stop-color="#236568"/><stop offset="1" stop-color="#2f878a"/></linearGradient><linearGradient id="SVGID_1_" gradientUnits="userSpaceOnUse" x1="454.565" x2="501.607" xlink:href="#lg1" y1="188.626" y2="188.626"/><linearGradient id="SVGID_2_" gradientUnits="userSpaceOnUse" x1="209.969" x2="254.281" y1="300.776" y2="300.776"><stop offset="0" stop-color="#cc8241"/><stop offset="1" stop-color="#dea861"/></linearGradient><linearGradient id="SVGID_3_" gradientUnits="userSpaceOnUse" x1="157.927" x2="323.871" y1="103.662" y2="199.47"><stop offset="0" stop-color="#dea861"/><stop offset="1" stop-color="#ebcba0"/></linearGradient><linearGradient id="lg2"><stop offset="0" stop-color="#43386b"/><stop offset="1" stop-color="#7662bd"/></linearGradient><linearGradient id="SVGID_4_" gradientUnits="userSpaceOnUse" x1="126.106" x2="8.347" xlink:href="#lg2" y1="234.424" y2="161.957"/><linearGradient id="SVGID_5_" gradientUnits="userSpaceOnUse" x1="162.34" x2="44.581" xlink:href="#lg2" y1="297.534" y2="225.066"/><linearGradient id="SVGID_6_" gradientUnits="userSpaceOnUse" x1="424.742" x2="456.264" xlink:href="#lg2" y1="286.448" y2="231.851"/><linearGradient id="SVGID_7_" gradientUnits="userSpaceOnUse" x1="400.176" x2="451.814" y1="156.587" y2="156.587"><stop offset="0" stop-color="#ab2c37"/><stop offset="1" stop-color="#ff7a85"/></linearGradient><linearGradient id="SVGID_8_" gradientTransform="matrix(.581 -.814 .814 .581 -59.683 364.495)" gradientUnits="userSpaceOnUse" x1="336.199" x2="381.109" xlink:href="#lg1" y1="272.413" y2="272.413"/><g><path d="m500.207 181.556c-3.93-7.337-14.903-13.533-24.509-13.838-5.291-.168-9.052 1.492-10.717 4.237l-.013-.007-9.303 14.991.024.012c-1.522 2.267-1.565 5.322.268 8.746 3.93 7.337 14.903 13.532 24.509 13.838 5.552.177 9.417-1.66 10.944-4.653l8.818-14.208-.005-.003c1.777-2.298 1.918-5.506-.016-9.115z" fill="url(#SVGID_1_)"/><g><g><path d="m409.018 349.572v-200.978l-322.574 13.833v200.977c-.001 4.605 2.278 9.21 6.836 11.842l127.785 73.777c9.088 5.247 20.285 5.247 29.373 0l151.744-87.609c4.558-2.632 6.836-7.237 6.836-11.842z" fill="url(#SVGID_2_)"/><path d="m93.28 150.587 151.744-87.609c9.088-5.247 20.285-5.247 29.373 0l127.785 73.777c9.115 5.263 9.115 18.419 0 23.681l-151.744 87.609c-9.088 5.247-20.285 5.247-29.373 0l-127.785-73.777c-9.115-5.263-9.115-18.419 0-23.681z" fill="url(#SVGID_3_)"/><path d="m142.482 122.18 162.98 94.096 43.233-24.96-162.98-94.097z" fill="#dea861"/><g fill="#cc8241"><path d="m168.322 107.248 162.98 94.097-8.469 4.889-162.98-94.096z"/><path d="m305.462 216.276v35.703l43.233-24.96v-35.703z"/></g></g></g><path d="m9.924 154.324 99.12 57.227c5.065 2.924 8.185 8.328 8.185 14.176 0 5.093-5.514 8.276-9.924 5.73l-99.12-57.227c-5.065-2.924-8.185-8.328-8.185-14.176 0-5.093 5.513-8.277 9.924-5.73z" fill="url(#SVGID_4_)"/><path d="m46.158 217.434 99.119 57.227c5.065 2.924 8.185 8.328 8.185 14.176 0 5.093-5.513 8.276-9.924 5.73l-99.12-57.227c-5.065-2.924-8.185-8.328-8.185-14.176.001-5.094 5.514-8.277 9.925-5.73z" fill="url(#SVGID_5_)"/><g><path d="m486.393 198.787.004-.008-33.653-19.374-.002.005c-13.284-7.039-30.349-6.036-48.966 4.712-42.359 24.456-76.697 90.066-76.697 146.545 0 31.051 10.393 52.848 26.778 62.143l-.012.025 30.748 17.752.032-.066c13.515 8.079 31.246 7.496 50.677-3.723 42.359-24.456 76.698-90.066 76.698-146.545 0-30.308-9.897-51.81-25.607-61.466z" fill="url(#SVGID_6_)"/><ellipse cx="435.302" cy="304.535" fill="#a996eb" rx="117.745" ry="66.613" transform="matrix(.392 -.92 .92 .392 -15.36 585.84)"/><ellipse cx="435.302" cy="304.535" fill="#f2effa" rx="84.991" ry="48.083" transform="matrix(.392 -.92 .92 .392 -15.361 585.84)"/><path d="m482.62 238.879c-9.716-15.663-27.272-19.733-47.318-8.16v73.816z" fill="#ff4757"/><path d="m446.023 298.345c0-7.894-4.8-11.523-10.721-8.105s-10.72 12.589-10.72 20.484 4.8 11.523 10.72 8.104c5.921-3.418 10.721-12.588 10.721-20.483z" fill="#594a8e"/><g><path d="m431.125 317.401v-67.726c0-2.307 1.87-4.177 4.177-4.177s4.177 1.87 4.177 4.177v41.993l22.607-31.154c1.355-1.865 3.965-2.285 5.833-.927 1.867 1.354 2.282 3.966.928 5.833z" fill="#594a8e"/></g></g><g><path d="m437.797 182.944v-15.239l-29.433 1.982v15.919l.02-.002c-.072 2.016 1.091 3.951 3.576 5.386 5.326 3.075 14.629 2.689 20.779-.861 3.555-2.052 5.266-4.711 5.058-7.185z" fill="#594a8e"/><path d="m445.977 158.324v-19.227l-45.801 3.085v20.286l.031-.003c-.113 3.137 1.698 6.149 5.564 8.381 8.288 4.785 22.765 4.185 32.335-1.34 5.531-3.194 8.193-7.333 7.871-11.182z" fill="url(#SVGID_7_)"/><ellipse cx="423.099" cy="140.207" fill="#ff7a85" rx="23.038" ry="13.034" transform="matrix(.993 -.121 .121 .993 -13.855 52.217)"/></g><g><path d="m381.681 217.435-13.613-9.711-20.949 33.986 14.363 10.246.014-.023c2.164 1.664 5.211 1.904 8.745.294 7.574-3.451 14.461-14.004 15.382-23.571.532-5.53-1.054-9.505-3.942-11.221z" fill="url(#SVGID_8_)"/><ellipse cx="357.299" cy="224.483" fill="#06daae" rx="20.036" ry="11.335" transform="matrix(.478 -.878 .878 .478 -10.662 431.026)"/></g></g></svg>