<?xml version="1.0" encoding="utf-8"?>
<!-- Generator: Adobe Illustrator 22.0.1, SVG Export Plug-In . SVG Version: 6.00 Build 0)  -->
<svg version="1.1" id="Capa_1" xmlns="http://www.w3.org/2000/svg" xmlns:xlink="http://www.w3.org/1999/xlink" x="0px" y="0px"
	 viewBox="0 0 512 512" style="enable-background:new 0 0 512 512;" xml:space="preserve">
<style type="text/css">
	.st0{fill:url(#SVGID_1_);}
	.st1{fill:url(#SVGID_2_);}
	.st2{fill:url(#SVGID_3_);}
	.st3{fill:#DEA861;}
	.st4{fill:#CC8241;}
	.st5{fill:url(#SVGID_4_);}
	.st6{fill:url(#SVGID_5_);}
	.st7{fill:url(#SVGID_6_);}
	.st8{fill:#A996EB;}
	.st9{fill:#F2EFFA;}
	.st10{fill:#FF4757;}
	.st11{fill:#594A8E;}
	.st12{fill:url(#SVGID_7_);}
	.st13{fill:#FF7A85;}
	.st14{fill:url(#SVGID_8_);}
	.st15{fill:#06DAAE;}
</style>
<g>
	
		<linearGradient id="SVGID_1_" gradientUnits="userSpaceOnUse" x1="454.5634" y1="323.3735" x2="501.607" y2="323.3735" gradientTransform="matrix(1 0 0 -1 0 512)">
		<stop  offset="0" style="stop-color:#236568"/>
		<stop  offset="1" style="stop-color:#2F878A"/>
	</linearGradient>
	<path class="st0" d="M500.2,181.6c-3.9-7.3-14.9-13.5-24.5-13.8c-5.3-0.2-9.1,1.5-10.7,4.2l0,0l-9.3,15l0,0
		c-1.5,2.3-1.6,5.3,0.3,8.7c3.9,7.3,14.9,13.5,24.5,13.8c5.6,0.2,9.4-1.7,10.9-4.7l8.8-14.2l0,0C502,188.4,502.1,185.2,500.2,181.6
		L500.2,181.6z"/>
	<g>
		<g>
			
				<linearGradient id="SVGID_2_" gradientUnits="userSpaceOnUse" x1="209.969" y1="211.2239" x2="254.281" y2="211.2239" gradientTransform="matrix(1 0 0 -1 0 512)">
				<stop  offset="0" style="stop-color:#CC8241"/>
				<stop  offset="1" style="stop-color:#DEA861"/>
			</linearGradient>
			<path class="st1" d="M409,349.6v-201L86.4,162.4v201c0,4.6,2.3,9.2,6.8,11.8L221.1,449c9.1,5.2,20.3,5.2,29.4,0l151.7-87.6
				C406.7,358.8,409,354.2,409,349.6z"/>
			
				<linearGradient id="SVGID_3_" gradientUnits="userSpaceOnUse" x1="157.9265" y1="408.3372" x2="323.8705" y2="312.5292" gradientTransform="matrix(1 0 0 -1 0 512)">
				<stop  offset="0" style="stop-color:#DEA861"/>
				<stop  offset="1" style="stop-color:#EBCBA0"/>
			</linearGradient>
			<path class="st2" d="M93.3,150.6L245,63c9.1-5.2,20.3-5.2,29.4,0l127.8,73.8c9.1,5.3,9.1,18.4,0,23.7L250.4,248
				c-9.1,5.2-20.3,5.2-29.4,0L93.3,174.3C84.2,169,84.2,155.8,93.3,150.6z"/>
			<path class="st3" d="M142.5,122.2l163,94.1l43.2-25l-163-94.1L142.5,122.2z"/>
			<g>
				<path class="st4" d="M168.3,107.2l163,94.1l-8.5,4.9l-163-94.1L168.3,107.2z"/>
				<path class="st4" d="M305.5,216.3V252l43.2-25v-35.7L305.5,216.3z"/>
			</g>
		</g>
	</g>
	
		<linearGradient id="SVGID_4_" gradientUnits="userSpaceOnUse" x1="126.1061" y1="277.5762" x2="8.3471" y2="350.0432" gradientTransform="matrix(1 0 0 -1 0 512)">
		<stop  offset="0" style="stop-color:#43386B"/>
		<stop  offset="1" style="stop-color:#7662BD"/>
	</linearGradient>
	<path class="st5" d="M9.9,154.3l99.1,57.2c5.1,2.9,8.2,8.3,8.2,14.2c0,5.1-5.5,8.3-9.9,5.7L8.2,174.2c-5.1-2.9-8.2-8.3-8.2-14.2
		C0,155,5.5,151.8,9.9,154.3z"/>
	
		<linearGradient id="SVGID_5_" gradientUnits="userSpaceOnUse" x1="162.3396" y1="214.4654" x2="44.5806" y2="286.9334" gradientTransform="matrix(1 0 0 -1 0 512)">
		<stop  offset="0" style="stop-color:#43386B"/>
		<stop  offset="1" style="stop-color:#7662BD"/>
	</linearGradient>
	<path class="st6" d="M46.2,217.4l99.1,57.2c5.1,2.9,8.2,8.3,8.2,14.2c0,5.1-5.5,8.3-9.9,5.7l-99.1-57.2c-5.1-2.9-8.2-8.3-8.2-14.2
		C36.2,218.1,41.7,214.9,46.2,217.4L46.2,217.4z"/>
	<g>
		
			<linearGradient id="SVGID_6_" gradientUnits="userSpaceOnUse" x1="424.7423" y1="225.5518" x2="456.2643" y2="280.1488" gradientTransform="matrix(1 0 0 -1 0 512)">
			<stop  offset="0" style="stop-color:#43386B"/>
			<stop  offset="1" style="stop-color:#7662BD"/>
		</linearGradient>
		<path class="st7" d="M486.4,198.8L486.4,198.8l-33.6-19.4l0,0c-13.3-7-30.3-6-49,4.7c-42.4,24.5-76.7,90.1-76.7,146.5
			c0,31.1,10.4,52.8,26.8,62.1l0,0l30.7,17.8l0-0.1c13.5,8.1,31.2,7.5,50.7-3.7c42.4-24.5,76.7-90.1,76.7-146.5
			C512,229.9,502.1,208.4,486.4,198.8L486.4,198.8z"/>
		<ellipse transform="matrix(0.392 -0.92 0.92 0.392 -15.5923 585.8874)" class="st8" cx="435.5" cy="304.7" rx="117.7" ry="66.6"/>
		<ellipse transform="matrix(0.392 -0.92 0.92 0.392 -15.5929 585.8865)" class="st9" cx="435.4" cy="304.7" rx="85" ry="48.1"/>
		<path class="st10" d="M482.6,238.9c-9.7-15.7-27.3-19.7-47.3-8.2v73.8L482.6,238.9z"/>
		<path class="st11" d="M446,298.3c0-7.9-4.8-11.5-10.7-8.1s-10.7,12.6-10.7,20.5s4.8,11.5,10.7,8.1
			C441.2,315.4,446,306.2,446,298.3z"/>
		<g>
			<path class="st11" d="M431.1,317.4v-67.7c0-2.3,1.9-4.2,4.2-4.2s4.2,1.9,4.2,4.2v42l22.6-31.2c1.4-1.9,4-2.3,5.8-0.9
				c1.9,1.4,2.3,4,0.9,5.8L431.1,317.4z"/>
		</g>
	</g>
	<g>
		<path class="st11" d="M437.8,182.9v-15.2l-29.4,2v15.9l0,0c-0.1,2,1.1,4,3.6,5.4c5.3,3.1,14.6,2.7,20.8-0.9
			C436.3,188.1,438,185.4,437.8,182.9L437.8,182.9z"/>
		
			<linearGradient id="SVGID_7_" gradientUnits="userSpaceOnUse" x1="400.176" y1="355.4133" x2="451.814" y2="355.4133" gradientTransform="matrix(1 0 0 -1 0 512)">
			<stop  offset="0" style="stop-color:#AB2C37"/>
			<stop  offset="1" style="stop-color:#FF7A85"/>
		</linearGradient>
		<path class="st12" d="M446,158.3v-19.2l-45.8,3.1v20.3l0,0c-0.1,3.1,1.7,6.1,5.6,8.4c8.3,4.8,22.8,4.2,32.3-1.3
			C443.6,166.3,446.3,162.2,446,158.3L446,158.3z"/>
		<ellipse transform="matrix(0.9927 -0.121 0.121 0.9927 -13.8565 52.225)" class="st13" cx="423.2" cy="140.2" rx="23" ry="13"/>
	</g>
	<g>
		
			<linearGradient id="SVGID_8_" gradientUnits="userSpaceOnUse" x1="343.5968" y1="242.0902" x2="388.5068" y2="242.0902" gradientTransform="matrix(0.581 -0.814 -0.814 -0.581 354.715 669.365)">
			<stop  offset="0" style="stop-color:#236568"/>
			<stop  offset="1" style="stop-color:#2F878A"/>
		</linearGradient>
		<path class="st14" d="M381.7,217.4l-13.6-9.7l-20.9,34l14.4,10.2l0,0c2.2,1.7,5.2,1.9,8.7,0.3c7.6-3.5,14.5-14,15.4-23.6
			C386.2,223.1,384.6,219.2,381.7,217.4L381.7,217.4z"/>
		
			<ellipse transform="matrix(0.4782 -0.8783 0.8783 0.4782 -10.8626 430.9588)" class="st15" cx="357.2" cy="224.6" rx="20" ry="11.3"/>
	</g>
</g>
</svg>
