<?xml version="1.0" encoding="utf-8"?>
<!-- Generator: Adobe Illustrator 22.0.1, SVG Export Plug-In . SVG Version: 6.00 Build 0)  -->
<svg version="1.1" id="Capa_1" xmlns="http://www.w3.org/2000/svg" xmlns:xlink="http://www.w3.org/1999/xlink" x="0px" y="0px"
	 viewBox="0 0 512 512" style="enable-background:new 0 0 512 512;" xml:space="preserve">
<style type="text/css">
	.st0{fill:#7662BD;}
	.st1{fill:url(#SVGID_1_);}
	.st2{fill:url(#SVGID_2_);}
	.st3{fill:url(#SVGID_3_);}
	.st4{fill:#E9E5F6;}
</style>
<g>
	<ellipse transform="matrix(0.9927 -0.121 0.121 0.9927 -51.5818 34.335)" class="st0" cx="257" cy="442" rx="102.6" ry="58"/>
	<g>
		
			<linearGradient id="SVGID_1_" gradientUnits="userSpaceOnUse" x1="226.8929" y1="266.5079" x2="306.5431" y2="404.4643" gradientTransform="matrix(1 0 0 -1 0 512)">
			<stop  offset="0" style="stop-color:#AB2C37"/>
			<stop  offset="1" style="stop-color:#FF7A85"/>
		</linearGradient>
		<path class="st1" d="M347,91.4l10.6-44.1l-45.1-26c-21.7-15-51.5-14.1-84.2,6.7c-59.2,37.8-107.1,130.1-109,210.2
			c-0.8,34.9,6.9,62.3,20.5,80.4l0,0l72.9,93.3c1.3,1.7,2.8,2.9,4.4,3.8l45.2,26.1l42.8-177.6l22.1-53.9l0,0
			c13-32.2,20.6-66.7,20.6-99.2C348.1,104.2,347.7,97.6,347,91.4L347,91.4z"/>
		
			<linearGradient id="SVGID_2_" gradientUnits="userSpaceOnUse" x1="243.334" y1="652.7793" x2="566.8599" y2="652.7793" gradientTransform="matrix(0.866 -0.5 0 -1.155 -46.782 1186.7069)">
			<stop  offset="0" style="stop-color:#FF4757"/>
			<stop  offset="1" style="stop-color:#FF7A85"/>
		</linearGradient>
		<path class="st2" d="M392.6,136.8c0-86.5-54.1-125-119.6-83.2c-59.2,37.8-107.1,130.1-109,210.2c-0.8,34.9,6.9,62.3,20.5,80.4l0,0
			l72.9,93.3c10.2,13.1,31.4,0.8,41.7-24L372,236l0,0C385,203.8,392.6,169.3,392.6,136.8L392.6,136.8z"/>
		
			<linearGradient id="SVGID_3_" gradientUnits="userSpaceOnUse" x1="274.8103" y1="323.1908" x2="306.3172" y2="377.763" gradientTransform="matrix(1 0 0 -1 0 512)">
			<stop  offset="0" style="stop-color:#C5BAEB"/>
			<stop  offset="1" style="stop-color:#D7D1EB"/>
		</linearGradient>
		<path class="st3" d="M361.8,115.8l-33.6-19.4l0,0c-13.3-7-30.3-6-48.9,4.7c-42.3,24.4-76.7,90-76.7,146.5
			c0,31,10.4,52.8,26.8,62.1l0,0l30.7,17.7L361.8,115.8z"/>
		<ellipse transform="matrix(0.392 -0.92 0.92 0.392 -15.2065 420.7025)" class="st4" cx="310.7" cy="221.9" rx="117.7" ry="66.6"/>
	</g>
</g>
</svg>
