<svg id="Capa_1" enable-background="new 0 0 512 512" height="512" viewBox="0 0 512 512" width="512" xmlns="http://www.w3.org/2000/svg" xmlns:xlink="http://www.w3.org/1999/xlink"><radialGradient id="SVGID_1_" cx="687.927" cy="245.659" gradientTransform="matrix(.978 -.207 .207 .978 -437.176 101.587)" gradientUnits="userSpaceOnUse" r="206.359"><stop offset="0" stop-color="#79d3fe"/><stop offset="1" stop-color="#2f97f7"/></radialGradient><linearGradient id="lg1"><stop offset="0" stop-color="#06daae"/><stop offset=".2214" stop-color="#0ccda8"/><stop offset=".6285" stop-color="#1dab9a"/><stop offset="1" stop-color="#2f878a"/></linearGradient><radialGradient id="SVGID_2_" cx="276.708" cy="200.973" gradientUnits="userSpaceOnUse" r="521.606" xlink:href="#lg1"/><radialGradient id="SVGID_3_" cx="136.872" cy="102.846" gradientUnits="userSpaceOnUse" r="56.242" xlink:href="#lg1"/><radialGradient id="SVGID_4_" cx="285.342" cy="403.872" gradientUnits="userSpaceOnUse" r="199.558" xlink:href="#lg1"/><radialGradient id="SVGID_5_" cx="298.092" cy="183.461" gradientUnits="userSpaceOnUse" r="671.658" xlink:href="#lg1"/><linearGradient id="SVGID_6_" gradientUnits="userSpaceOnUse" x1="338.624" x2="377.001" y1="112.986" y2="46.514"><stop offset="0" stop-color="#ab2c37"/><stop offset="1" stop-color="#ff7a85"/></linearGradient><linearGradient id="SVGID_7_" gradientTransform="matrix(.866 -.5 0 1.155 209.694 959.229)" gradientUnits="userSpaceOnUse" x1="113.857" x2="269.741" y1="-656.199" y2="-656.199"><stop offset="0" stop-color="#ff4757"/><stop offset="1" stop-color="#ff7a85"/></linearGradient><linearGradient id="SVGID_8_" gradientUnits="userSpaceOnUse" x1="361.711" x2="376.892" y1="85.673" y2="59.378"><stop offset="0" stop-color="#c5baeb"/><stop offset="1" stop-color="#d7d1eb"/></linearGradient><g><g><circle cx="256" cy="288.43" fill="url(#SVGID_1_)" r="223.524"/><g><g><path d="m474.696 242.224c-20.857-98.716-103.893-168.322-199.477-176.535l-45.221 35.103-12.61-29.52 22.419 2.824c.37-2.94.27-5.83-.237-8.598-9.877.74-19.818 2.132-29.776 4.235-17.41 3.679-33.909 9.301-49.332 16.576 6.834 2.251 11.346 9.082 10.413 16.488l-1.972 15.651 26.129-6.162c1.355 6.055-2.554 12.034-8.644 13.22l-21.038 4.097c-2.001 15.886-16.502 27.142-32.387 25.141l-5.922-.747 1.812-14.382c-6.931-.873-13.256 4.038-14.129 10.968l-.231 1.833-3.667-.462c-14.329-1.805-27.407 8.347-29.212 22.676l-16.074-2.024-.142 1.127c-1.216 9.657 5.626 18.471 15.281 19.687-.824 6.541-6.795 11.176-13.336 10.353l-17.313-2.181c-2.168 5.129-4.146 10.345-5.931 15.639.638.227 1.308.395 2.008.483-1.457 11.564 6.737 22.12 18.301 23.576 5.256.662 10.054-3.063 10.716-8.319l1.119-8.883c10.591 1.334 20.257-6.17 21.591-16.76l.249-1.974 19.176 2.415c-1.354 10.747 6.261 20.556 17.007 21.909l5.922.746-1.065 8.46-3.716.447c-4.857.584-8.14 5.244-7.056 10.014l21.165-4.281 4.085-32.43c5.379.678 9.292 5.439 8.914 10.848l-.86 12.309c-.604 8.631 3.187 16.983 10.08 22.21l2.91 2.207 8.75-13.455c9.495 10.407 23.839 14.927 37.585 11.844l3.123-.7 2.245 9.497c1.962 8.301-3.153 16.626-11.445 18.625l-15.438 3.724-31.317-23.754c-10.868 8.885-26.022 10.334-38.377 3.67l-12.847-6.929 3.316-20.638-84.037 8.752c-.175 3.609-.907 7.08-2.111 10.329-2.93 23.869-2.037 48.618 3.212 73.463 3.719 17.603 9.428 34.272 16.821 49.842 2.668.032 5.357-.067 8.061-.332l14.559-1.43 5.646 13.173c7.813.037 14.103 6.425 14.019 14.238l-.252 23.163 10.191 7.729 2.744 15.883c28.586 24.889 63.284 42.36 100.81 50.29l8.161-6.336 6.153-48.856 57.289-44.471c5.97-4.634 3.357-14.173-4.142-15.118l-14.209-1.79c-11.989-1.51-22.144-9.563-26.345-20.894l-20.641-55.671c-2.929-7.9.885-16.706 8.652-19.975l25.453 61.937-2.025 16.074c7.892 5.986 18.605 6.656 27.181 1.699l52.486-30.338-1.417-1.95c-8.529-11.734-24.944-14.355-36.703-5.86l-7.209-9.288c-8.168-10.522-6.259-25.673 4.263-33.84l7.041 9.07c12.426 16.007 32.164 24.563 52.341 22.688l20.889 26.91 14.594 1.839-2.477 19.67 12.385 15.956-4.236 33.628c13.433 1.692 25.694-7.826 27.386-21.259l2.265-17.978c11.681 1.471 22.343-6.804 23.814-18.486l.853-6.768 20.304 2.558-.533 4.23c-.451 3.578-.201 7.081.63 10.379 17.05-40.518 22.366-86.46 12.59-132.728z" fill="url(#SVGID_2_)"/><path d="m153.564 117.409 3.726-29.577c-16.326 8.019-31.397 17.918-45.005 29.359 5.717 1.737 12.024 1.557 17.888-.91l1.289-.542-2.629 20.868c12.131 1.528 23.203-7.067 24.731-19.198z" fill="url(#SVGID_3_)"/></g><path d="m248.705 507.622c-5.376-2.01-10.907-.353-14.438 3.324 10.226.996 20.601 1.28 31.064.83 1.098-5.302.85-10.917-.969-16.308z" fill="url(#SVGID_4_)"/><path d="m399.804 431.146 3.574 4.604c3.336 4.296 9.522 5.076 13.818 1.74l-5.423-6.986 4.128-3.204c3.026-2.349 3.574-6.704 1.226-9.729z" fill="url(#SVGID_5_)"/></g></g><g><path d="m401.616 17.478-21.712-12.536c-10.453-7.244-24.813-6.815-40.548 3.217-28.543 18.197-51.592 62.675-52.51 101.281-.4 16.794 3.328 30.012 9.898 38.743l-.009.014 35.14 44.932c.633.809 1.354 1.414 2.138 1.834l21.78 12.575z" fill="url(#SVGID_6_)"/><path d="m418.479 60.633c0-41.698-26.058-60.237-57.645-40.098-28.543 18.197-51.592 62.675-52.51 101.281-.4 16.794 3.328 30.012 9.898 38.742l-.01.014 35.14 44.932c4.93 6.304 15.139.409 20.069-11.587l35.14-85.508-.01-.004c6.25-15.519 9.928-32.131 9.928-47.772z" fill="url(#SVGID_7_)"/><path d="m403.61 50.498-16.207-9.33-.001.003c-6.398-3.39-14.616-2.907-23.582 2.269-20.4 11.778-36.938 43.376-36.938 70.577 0 14.954 5.005 25.452 12.896 29.928l-.006.012 14.808 8.55z" fill="url(#SVGID_8_)"/><ellipse cx="379.002" cy="101.431" fill="#f2effa" rx="56.707" ry="32.081" transform="matrix(.392 -.92 .92 .392 137.272 410.457)"/></g></g></svg>