<svg id="Capa_1" enable-background="new 0 0 512 512" height="512" viewBox="0 0 512 512" width="512" xmlns="http://www.w3.org/2000/svg" xmlns:xlink="http://www.w3.org/1999/xlink"><linearGradient id="SVGID_1_" gradientUnits="userSpaceOnUse" x1="267.05" x2="333.996" y1="236.856" y2="120.903"><stop offset="0" stop-color="#0197f8"/><stop offset="1" stop-color="#a3e7fe"/></linearGradient><linearGradient id="lg1"><stop offset="0" stop-color="#c5baeb"/><stop offset="1" stop-color="#d7d1eb"/></linearGradient><linearGradient id="SVGID_2_" gradientUnits="userSpaceOnUse" x1="264.171" x2="335.018" xlink:href="#lg1" y1="322.343" y2="322.343"/><linearGradient id="SVGID_3_" gradientUnits="userSpaceOnUse" x1="307.292" x2="320.781" xlink:href="#lg1" y1="184.545" y2="161.181"/><g><path d="m397.981 50.682.008-.017-71.47-41.146-.005.011c-28.213-14.95-64.454-12.82-103.993 10.008-89.96 51.939-162.887 191.281-162.887 311.229 0 65.945 22.072 112.237 56.871 131.978l-.025.053 65.302 37.702.067-.14c28.703 17.158 66.36 15.919 107.627-7.907 89.961-51.939 162.889-191.281 162.889-311.229.001-64.369-21.018-110.035-54.384-130.542z" fill="url(#SVGID_1_)"/><ellipse cx="289.477" cy="275.267" fill="#79d3fe" rx="250.065" ry="141.472" transform="matrix(.392 -.92 .92 .392 -77.157 433.85)"/><g><path d="m335.018 246.264-17.668-9.811c-7.275-4.202-16.629-4.804-24.944-.004-17.472 10.087-28.235 28.73-28.235 48.904v93.726c0 8.758 4.332 16.009 10.615 20.403l-.001.003.025.014c1.449 1.011 2.996 1.879 4.624 2.568l16.971 9.545z" fill="url(#SVGID_2_)"/><path d="m311.101 246.812c16.626-9.599 37.408 2.4 37.408 21.598v93.726c0 20.175-10.763 38.817-28.235 48.905-16.626 9.599-37.408-2.4-37.408-21.598v-93.726c0-20.175 10.763-38.817 28.235-48.905z" fill="#f2effa"/><path d="m337.551 146.328.002-.003-19.606-11.3-.001.002c-5.685-3.012-12.987-2.583-20.954 2.016-18.127 10.465-32.821 38.542-32.821 62.712 0 13.288 4.448 22.615 11.459 26.593l-.005.011 18.363 10.606.014-.028c5.784 3.457 13.371 3.208 21.686-1.593 18.127-10.466 32.822-38.543 32.822-62.712 0-12.97-4.236-22.171-10.959-26.304z" fill="url(#SVGID_3_)"/><ellipse cx="315.688" cy="191.582" fill="#f2effa" rx="50.387" ry="28.506" transform="matrix(.392 -.92 .92 .392 15.794 407.049)"/></g></g></svg>