<svg id="Capa_1" enable-background="new 0 0 512 512" height="512" viewBox="0 0 512 512" width="512" xmlns="http://www.w3.org/2000/svg" xmlns:xlink="http://www.w3.org/1999/xlink"><linearGradient id="lg1"><stop offset="0" stop-color="#c5baeb"/><stop offset="1" stop-color="#d7d1eb"/></linearGradient><linearGradient id="SVGID_1_" gradientUnits="userSpaceOnUse" x1="213.594" x2="235.082" xlink:href="#lg1" y1="359.525" y2="359.525"/><linearGradient id="SVGID_2_" gradientUnits="userSpaceOnUse" x1="235.95" x2="277.755" y1="184.573" y2="112.165"><stop offset="0" stop-color="#ab2c37"/><stop offset="1" stop-color="#ff7a85"/></linearGradient><linearGradient id="SVGID_3_" gradientTransform="matrix(.866 -.5 0 1.155 38.174 319.229)" gradientUnits="userSpaceOnUse" x1="190.229" x2="360.033" y1="-4.432" y2="-4.432"><stop offset="0" stop-color="#ff4757"/><stop offset="1" stop-color="#ff7a85"/></linearGradient><linearGradient id="SVGID_4_" gradientUnits="userSpaceOnUse" x1="261.099" x2="277.636" xlink:href="#lg1" y1="154.821" y2="126.178"/><g><path d="m0 306.935v15.921c0 1.729.855 3.459 2.567 4.447l207.757 119.949c7.508 4.335 16.757 4.335 24.265 0l274.844-158.681c1.642-.948 2.474-2.579 2.541-4.237l.026-.002v-15.786z" fill="url(#SVGID_1_)"/><path d="m234.589 431.331 274.844-158.681c3.423-1.976 3.423-6.917 0-8.893l-207.757-119.949c-7.508-4.335-16.757-4.335-24.265 0l-274.844 158.681c-3.423 1.976-3.423 6.917 0 8.893l207.757 119.949c7.508 4.334 16.758 4.334 24.265 0z" fill="#e9e5f6"/><ellipse cx="251.733" cy="287.569" fill="#7662bd" rx="53.834" ry="30.456" transform="matrix(.993 -.121 .121 .993 -32.943 32.569)"/><g><path d="m304.568 80.535-23.65-13.655c-11.387-7.891-27.029-7.423-44.169 3.504-31.092 19.822-56.199 68.272-57.199 110.326-.435 18.294 3.625 32.692 10.782 42.202l-.01.016 38.278 48.944c.689.881 1.475 1.54 2.329 1.998l23.725 13.698z" fill="url(#SVGID_2_)"/><path d="m322.937 127.545c0-45.422-28.385-65.616-62.793-43.679-31.092 19.822-56.199 68.272-57.2 110.326-.435 18.294 3.626 32.692 10.782 42.202l-.01.016 38.278 48.944c5.37 6.867 16.492.446 21.862-12.622l38.278-93.144-.01-.004c6.807-16.906 10.813-35.001 10.813-52.039z" fill="url(#SVGID_3_)"/><path d="m306.74 116.505-17.655-10.164-.001.003c-6.969-3.693-15.921-3.167-25.688 2.472-22.222 12.83-40.236 47.25-40.236 76.88 0 16.29 5.452 27.725 14.048 32.601l-.006.013 16.131 9.313z" fill="url(#SVGID_4_)"/><ellipse cx="279.935" cy="171.986" fill="#f2effa" rx="61.771" ry="34.946" transform="matrix(.392 -.92 .92 .392 12.072 362.229)"/></g></g></svg>