<svg id="Capa_1" enable-background="new 0 0 512 512" height="512" viewBox="0 0 512 512" width="512" xmlns="http://www.w3.org/2000/svg" xmlns:xlink="http://www.w3.org/1999/xlink"><linearGradient id="SVGID_1_" gradientUnits="userSpaceOnUse" x1="256" x2="256" y1="502.713" y2="79.474"><stop offset="0" stop-color="#2f878a"/><stop offset="1" stop-color="#06daae"/></linearGradient><g><path d="m442.338 295.425-372.676 215.165c-6.488 3.746-11.748-.23-11.748-8.882v-262.686c0-8.651 5.26-18.701 11.748-22.447l372.676-215.165c6.488-3.746 11.748.23 11.748 8.882v262.687c.001 8.65-5.259 18.7-11.748 22.446z" fill="url(#SVGID_1_)"/><path d="m417.335 63.187v199.333l-322.67 186.293v-199.333zm3.945-18.889-330.56 190.849c-4.702 2.715-8.513 9.997-8.513 16.266v209.852c0 6.269 3.811 9.151 8.513 6.436l330.56-190.849c4.702-2.715 8.513-9.997 8.513-16.266v-209.852c0-6.268-3.811-9.15-8.513-6.436z" fill="#fcf3b3"/><ellipse cx="256" cy="252.678" fill="#fcf3b3" rx="89.891" ry="50.855" transform="matrix(.392 -.92 .92 .392 -76.74 389.302)"/><g><path d="m264.234 297.004v19.487l-12.705 7.335v-19.615c-8.979 3.529-17.673 3.581-24.073.27l6.783-22.13c6.877 3.927 17.29 3.519 24.264-.508 5.158-2.978 8.406-7.401 8.406-12.113 0-15.158-35.25 14.365-35.25-17.223 0-14.138 7.642-28.357 19.87-38.092v-18.723l12.705-7.335v18.596c7.834-3.377 15.285-4.112 20.921-2.526l-6.591 22.274c-7.069-1.268-16.049-.287-21.59 2.912-4.203 2.427-6.973 6.064-6.973 10.14 0 14.775 35.25-13.983 35.25 18.114 0 15.667-8.98 30.022-21.017 39.137z" fill="#2f878a"/></g><g fill="#fcf3b3"><ellipse cx="151.662" cy="312.917" rx="25.82" ry="14.607" transform="matrix(.392 -.92 .92 .392 -195.654 329.947)"/><ellipse cx="360.338" cy="192.438" rx="25.82" ry="14.607" transform="matrix(.392 -.92 .92 .392 42.174 448.656)"/></g></g></svg>