<?xml version="1.0" encoding="utf-8"?>
<!-- Generator: Adobe Illustrator 22.0.1, SVG Export Plug-In . SVG Version: 6.00 Build 0)  -->
<svg version="1.1" id="Capa_1" xmlns="http://www.w3.org/2000/svg" xmlns:xlink="http://www.w3.org/1999/xlink" x="0px" y="0px"
	 viewBox="0 0 512 512" style="enable-background:new 0 0 512 512;" xml:space="preserve">
<style type="text/css">
	.st0{fill:url(#SVGID_1_);}
	.st1{fill:url(#SVGID_2_);}
	.st2{fill:#E9E5F6;}
	.st3{fill:#7662BD;}
	.st4{fill:url(#SVGID_3_);}
	.st5{fill:#A996EB;}
	.st6{fill:url(#SVGID_4_);}
	.st7{fill:#594A8E;}
	.st8{fill:url(#SVGID_5_);}
	.st9{fill:url(#SVGID_6_);}
	.st10{fill:#DEA861;}
	.st11{fill:#CC8241;}
	.st12{fill:url(#SVGID_7_);}
	.st13{fill:#5D3645;}
	.st14{fill:url(#SVGID_8_);}
	.st15{fill:url(#SVGID_9_);}
	.st16{fill:url(#SVGID_10_);}
	.st17{fill:url(#SVGID_11_);}
	.st18{fill:url(#SVGID_12_);}
	.st19{fill:url(#SVGID_13_);}
	.st20{fill:url(#SVGID_14_);}
	.st21{fill:url(#SVGID_15_);}
	.st22{fill:url(#SVGID_16_);}
	.st23{fill:url(#SVGID_17_);}
	.st24{fill:url(#SVGID_18_);}
	.st25{fill:#D7D1EB;}
	.st26{fill:url(#SVGID_19_);}
	.st27{fill:#1377D1;}
	.st28{fill:url(#SVGID_20_);}
	.st29{fill:url(#SVGID_21_);}
</style>
<g>
	<g>
		
			<linearGradient id="SVGID_1_" gradientUnits="userSpaceOnUse" x1="-1197.9454" y1="220.0772" x2="-1179.2714" y2="252.4222" gradientTransform="matrix(-1 0 0 -1 -1028.983 514)">
			<stop  offset="0" style="stop-color:#43386B"/>
			<stop  offset="1" style="stop-color:#7662BD"/>
		</linearGradient>
		<path class="st0" d="M114.2,252.7l26.4-15.5l0,0c7.9-4.2,18-3.6,29,2.8c25.1,14.5,45.4,53.3,45.4,86.7c0,18.4-6.1,31.3-15.8,36.8
			l0,0L174.5,378L114.2,252.7z"/>
		
			<linearGradient id="SVGID_2_" gradientUnits="userSpaceOnUse" x1="144.462" y1="114.157" x2="144.462" y2="277.848" gradientTransform="matrix(1 0 0 -1 0 514)">
			<stop  offset="0" style="stop-color:#43386B"/>
			<stop  offset="1" style="stop-color:#7662BD"/>
		</linearGradient>
		<path class="st1" d="M99.1,289.1c0-33.4,20.3-48.8,45.4-34.3c25.1,14.5,45.4,53.3,45.4,86.7c0,33.4-20.3,48.8-45.4,34.3
			C119.4,361.3,99.1,322.5,99.1,289.1z"/>
		<ellipse transform="matrix(0.92 -0.392 0.392 0.92 -111.9763 81.8977)" class="st2" cx="144.6" cy="315.2" rx="24.5" ry="43.4"/>
		<path class="st3" d="M130.1,307c0-10.6,6.4-15.5,14.4-10.9c7.9,4.6,14.4,16.9,14.4,27.5c0,10.6-6.4,15.5-14.4,10.9
			C136.5,329.9,130.1,317.6,130.1,307z"/>
	</g>
	<linearGradient id="SVGID_3_" gradientUnits="userSpaceOnUse" x1="182.88" y1="351.6286" x2="400.95" y2="351.6286">
		<stop  offset="0" style="stop-color:#015CAE"/>
		<stop  offset="1" style="stop-color:#1377D1"/>
	</linearGradient>
	<path class="st4" d="M268.5,416.2L190.6,371c-10.3-6-10.3-20.8,0-26.8l90.2-52.1c11.8-6.8,26.3-6.8,38.1,0l82.1,47.7L268.5,416.2z"
		/>
	<path class="st5" d="M290.7,290.7v-26.1c13.9-8,22.4-22.8,22.4-38.8c0-4.4-2.3-8.4-6.1-10.6L199.1,153c-7.2-4.2-16-4.5-23.6-0.9
		c-3.4,1.6-6.6,3.5-9.6,5.5l-45,26L236,322.3l65,73.6l54.6-31.6v-35.8L290.7,290.7z"/>
	<path class="st3" d="M290.7,264.6L236,296.2v26.1l54.6-31.6V264.6z"/>
	
		<linearGradient id="SVGID_4_" gradientUnits="userSpaceOnUse" x1="79.701" y1="225.4521" x2="300.995" y2="225.4521" gradientTransform="matrix(1 0 0 -1 0 514)">
		<stop  offset="0" style="stop-color:#C5BAEB"/>
		<stop  offset="1" style="stop-color:#D7D1EB"/>
	</linearGradient>
	<path class="st6" d="M301,395.9L79.7,267.8V249c0-27.9,16-53.3,41.2-65.4c7.5-3.6,16.4-3.3,23.6,0.9l107.8,62.2
		c3.8,2.2,6.1,6.2,6.1,10.6c0,16-8.5,30.8-22.4,38.8v26.1l65,37.8V395.9z"/>
	<g>
		<g>
			<path class="st7" d="M154.8,202.2c-3.6,0-7.1-0.9-10.2-2.7L83,164c-4-2.3-6.4-6.4-6.4-11s2.4-8.7,6.4-11l73.1-42.2
				c6.2-3.6,14.2-3.6,20.3,0l61.6,35.6c4,2.3,6.4,6.4,6.4,11c0,4.6-2.4,8.7-6.4,11l-73.1,42.2C161.9,201.3,158.3,202.2,154.8,202.2
				L154.8,202.2z M166.3,109.2c-1.4,0-2.8,0.4-4,1.1l-73.1,42.2c-0.1,0-0.2,0.1-0.2,0.4c0,0.2,0.1,0.3,0.2,0.4l61.6,35.6
				c2.4,1.4,5.6,1.4,8,0l73.1-42.2c0.1,0,0.2-0.1,0.2-0.4c0-0.2-0.1-0.3-0.2-0.4l-61.6-35.6C169.1,109.6,167.7,109.2,166.3,109.2
				L166.3,109.2z"/>
		</g>
		
			<linearGradient id="SVGID_5_" gradientUnits="userSpaceOnUse" x1="142.35" y1="397.5021" x2="163.704" y2="397.5021" gradientTransform="matrix(1 0 0 -1 0 514)">
			<stop  offset="0" style="stop-color:#CC8241"/>
			<stop  offset="1" style="stop-color:#DEA861"/>
		</linearGradient>
		<path class="st8" d="M238.3,140V43.2L82.8,49.8v96.9c0,2.2,1.1,4.4,3.3,5.7l61.6,35.6c4.4,2.5,9.8,2.5,14.2,0l73.1-42.2
			C237.2,144.5,238.3,142.2,238.3,140L238.3,140z"/>
		
			<linearGradient id="SVGID_6_" gradientUnits="userSpaceOnUse" x1="117.2695" y1="492.4969" x2="197.2425" y2="446.3249" gradientTransform="matrix(1 0 0 -1 0 514)">
			<stop  offset="0" style="stop-color:#DEA861"/>
			<stop  offset="1" style="stop-color:#EBCBA0"/>
		</linearGradient>
		<path class="st9" d="M86.1,44.1l73.1-42.2c4.4-2.5,9.8-2.5,14.2,0L235,37.5c4.4,2.5,4.4,8.9,0,11.4l-73.1,42.2
			c-4.4,2.5-9.8,2.5-14.2,0L86.1,55.5C81.7,53,81.7,46.7,86.1,44.1z"/>
		<path class="st10" d="M109.8,30.4l78.5,45.3l20.8-12l-78.5-45.3L109.8,30.4z"/>
		<g>
			<path class="st11" d="M122.3,23.2l78.5,45.3l-4.1,2.4l-78.5-45.3L122.3,23.2z"/>
			<path class="st11" d="M188.4,75.8V93l20.8-12V63.7L188.4,75.8z"/>
		</g>
	</g>
	<g>
		
			<linearGradient id="SVGID_7_" gradientUnits="userSpaceOnUse" x1="259.6817" y1="285.3908" x2="247.4107" y2="306.6448" gradientTransform="matrix(1 0 0 -1 0 514)">
			<stop  offset="0" style="stop-color:#5D3645"/>
			<stop  offset="1" style="stop-color:#966D7D"/>
		</linearGradient>
		<path class="st12" d="M308,216.2c0-11.9-6.4-22.9-16.7-28.9l-56.7-32.7c-3.2-1.9-6.9-1.2-9.4,0.9l0,0L185.5,179
			c-1,0.4-2,0.9-2.8,1.6l0,0l0,0c-1.6,1.5-2.7,3.5-2.7,6c0,11.9,6.4,22.9,16.7,28.9l56.7,32.7c1.3,0.8,7.1,0.4,8.6-0.3
			c14.8-7.1,41.6-24.5,41.6-24.5c0.3-0.1,0.6-0.3,0.8-0.5l0.2-0.1l0,0C306.6,221.4,308,219.1,308,216.2L308,216.2z"/>
		<path class="st13" d="M253.3,248.3l-56.7-32.7c-10.3-6-16.7-16.9-16.7-28.9c0-6.3,6.8-10.2,12.2-7.1l56.7,32.7
			c10.3,6,16.7,16.9,16.7,28.9C265.5,247.5,258.7,251.4,253.3,248.3L253.3,248.3z"/>
	</g>
	
		<linearGradient id="SVGID_8_" gradientUnits="userSpaceOnUse" x1="366.924" y1="164.497" x2="344.0129" y2="204.18" gradientTransform="matrix(1 0 0 -1 0 514)">
		<stop  offset="0" style="stop-color:#014CAE"/>
		<stop  offset="1" style="stop-color:#1377D1"/>
	</linearGradient>
	<path class="st14" d="M366,173.4l-39.9,23.2c-28.3,16.4-45.7,46.7-45.7,79.4v117.6c0,9.8-4.8,17.9-11.9,22.8L401,339.6
		c7.1-4.9,12-13,12-22.9V200.5C413,176.4,386.9,161.3,366,173.4L366,173.4z"/>
	<g>
		
			<linearGradient id="SVGID_9_" gradientUnits="userSpaceOnUse" x1="-1422.4674" y1="89.3062" x2="-1403.7935" y2="121.6512" gradientTransform="matrix(-1 0 0 -1 -1028.983 514)">
			<stop  offset="0" style="stop-color:#43386B"/>
			<stop  offset="1" style="stop-color:#7662BD"/>
		</linearGradient>
		<path class="st15" d="M338.8,383.5l26.4-15.5l0,0c7.9-4.2,18-3.6,29,2.8c25.1,14.5,45.4,53.3,45.4,86.7c0,18.4-6.1,31.3-15.8,36.8
			l0,0L399,508.8L338.8,383.5z"/>
		
			<linearGradient id="SVGID_10_" gradientUnits="userSpaceOnUse" x1="368.984" y1="-16.614" x2="368.984" y2="147.077" gradientTransform="matrix(1 0 0 -1 0 514)">
			<stop  offset="0" style="stop-color:#43386B"/>
			<stop  offset="1" style="stop-color:#7662BD"/>
		</linearGradient>
		<path class="st16" d="M323.6,419.9c0-33.4,20.3-48.8,45.4-34.3c25.1,14.5,45.4,53.3,45.4,86.7c0,33.4-20.3,48.8-45.4,34.3
			C343.9,492.1,323.6,453.3,323.6,419.9z"/>
		<ellipse transform="matrix(0.92 -0.392 0.392 0.92 -145.2187 180.3729)" class="st2" cx="369.1" cy="445.8" rx="24.5" ry="43.4"/>
		<path class="st3" d="M354.6,437.8c0-10.6,6.4-15.5,14.4-10.9c7.9,4.6,14.4,16.9,14.4,27.5s-6.4,15.5-14.4,10.9
			C361,460.7,354.6,448.4,354.6,437.8z"/>
	</g>
	
		<linearGradient id="SVGID_11_" gradientUnits="userSpaceOnUse" x1="404.5079" y1="74.25" x2="381.5499" y2="114.013" gradientTransform="matrix(1 0 0 -1 0 514)">
		<stop  offset="0" style="stop-color:#C5BAEB"/>
		<stop  offset="1" style="stop-color:#D7D1EB"/>
	</linearGradient>
	<path class="st17" d="M396.7,357.2c-13.2-7.6-25.3-8.3-34.8-3.3l0,0l-31.7,18.6l6.1,12.7c-1.2,5.4-1.9,11.4-1.9,18
		c0,2.7,0.1,5.4,0.3,8.1l85.1,52.6l30.2-17.5C445.1,410.3,423.1,372.5,396.7,357.2z"/>
	<path class="st5" d="M357.5,427.9l62.4,36c-5-36.1-27-73.8-53.4-89c-30.1-17.4-54.5,1.1-54.5,41.2c0,3.9,0.2,7.8,0.7,11.8H357.5z"
		/>
	
		<linearGradient id="SVGID_12_" gradientUnits="userSpaceOnUse" x1="156.8154" y1="207.9661" x2="146.1234" y2="245.7971" gradientTransform="matrix(1 0 0 -1 0 514)">
		<stop  offset="0" style="stop-color:#014CAE"/>
		<stop  offset="1" style="stop-color:#1377D1"/>
	</linearGradient>
	<path class="st18" d="M195.3,248.6l-22.6-13c-13.6-7.9-29.7-10.2-45-6.6c-6.8,1.6-13.2,4.4-19.1,8.1l-24.9,14.2l4.9,5.6l-8.9,11.1
		l37.8,21.8l47.7,54.3l23.5-13.2l18.3-24.3c5.2-6.8,8-15.2,8-23.8v0C215,268.6,207.5,255.6,195.3,248.6L195.3,248.6z"/>
	<linearGradient id="SVGID_13_" gradientUnits="userSpaceOnUse" x1="61.9186" y1="292.2306" x2="191.502" y2="292.2306">
		<stop  offset="0" style="stop-color:#014CAE"/>
		<stop  offset="1" style="stop-color:#1377D1"/>
	</linearGradient>
	<path class="st19" d="M165.2,344l18.3-24.3c5.2-6.8,8-15.2,8-23.8c0-14.1-7.5-27.1-19.7-34.1l-22.6-13c-13.6-7.9-29.7-10.2-45-6.6
		c-13.4,3.2-25.3,10.7-33.9,21.4l-5.9,7.3c-4.3,5.4-2.8,13.3,3.1,16.7L165.2,344z"/>
	<path class="st5" d="M345.1,352.9V185.6l12,6.9v167.3L345.1,352.9z"/>
	
		<linearGradient id="SVGID_14_" gradientUnits="userSpaceOnUse" x1="363.11" y1="156.331" x2="363.11" y2="388.636" gradientTransform="matrix(1 0 0 -1 0 514)">
		<stop  offset="0" style="stop-color:#C5BAEB"/>
		<stop  offset="1" style="stop-color:#D7D1EB"/>
	</linearGradient>
	<path class="st20" d="M357.1,192.5l12-6.9v167.3l-12,6.9V192.5z"/>
	<g>
		<g>
			
				<linearGradient id="SVGID_15_" gradientUnits="userSpaceOnUse" x1="-1464.0216" y1="377.9872" x2="-1460.7096" y2="383.7222" gradientTransform="matrix(-1 0 0 -1 -1054.123 514)">
				<stop  offset="0" style="stop-color:#43386B"/>
				<stop  offset="1" style="stop-color:#7662BD"/>
			</linearGradient>
			<path class="st21" d="M388.3,135.7l28.5-16.6v0c1.4-0.7,3.2-0.6,5.1,0.5c4.4,2.6,8,9.4,8,15.3c0,3.2-1.1,5.5-2.8,6.5l0,0
				l-28.2,16.4L388.3,135.7z"/>
			
				<linearGradient id="SVGID_16_" gradientUnits="userSpaceOnUse" x1="393.632" y1="352.323" x2="393.632" y2="381.281" gradientTransform="matrix(1 0 0 -1 0 514)">
				<stop  offset="0" style="stop-color:#43386B"/>
				<stop  offset="1" style="stop-color:#7662BD"/>
			</linearGradient>
			<path class="st22" d="M385.6,142.1c0-5.9,3.6-8.6,8-6.1c4.4,2.6,8,9.4,8,15.3s-3.6,8.6-8,6.1C389.2,154.9,385.6,148,385.6,142.1z
				"/>
		</g>
		<g>
			
				<linearGradient id="SVGID_17_" gradientUnits="userSpaceOnUse" x1="-1450.6069" y1="369.862" x2="-1445.7969" y2="378.193" gradientTransform="matrix(-1 0 0 -1 -1054.123 514)">
				<stop  offset="0" style="stop-color:#015CAE"/>
				<stop  offset="1" style="stop-color:#1377D1"/>
			</linearGradient>
			<path class="st23" d="M379.6,135.1l12.3-7.2v0c2-1.1,4.6-0.9,7.5,0.7c6.5,3.7,11.7,13.7,11.7,22.3c0,4.7-1.6,8.1-4.1,9.5l0,0
				l-11.9,6.9L379.6,135.1z"/>
		</g>
		<g>
			
				<linearGradient id="SVGID_18_" gradientUnits="userSpaceOnUse" x1="351.991" y1="355.276" x2="362.563" y2="373.587" gradientTransform="matrix(1 0 0 -1 0 514)">
				<stop  offset="0" style="stop-color:#015CAE"/>
				<stop  offset="1" style="stop-color:#1377D1"/>
			</linearGradient>
			<path class="st24" d="M393.4,141.4l-27.1-15.7l0,0c-4.5-2.4-10.2-2-16.4,1.6c-14.2,8.2-36.9,20.2-36.9,39.2
				c0,10.4,3.5,17.7,9,20.8l11.2,9.9l26.1,15.2L393.4,141.4z"/>
			<ellipse transform="matrix(0.392 -0.92 0.92 0.392 66.0737 453.8947)" class="st25" cx="376.4" cy="177" rx="39.4" ry="22.3"/>
			<ellipse transform="matrix(0.392 -0.92 0.92 0.392 66.0734 453.8963)" class="st2" cx="376.4" cy="177" rx="28.9" ry="16.4"/>
		</g>
		<g>
			
				<linearGradient id="SVGID_19_" gradientUnits="userSpaceOnUse" x1="-1383.9647" y1="331.9214" x2="-1379.1547" y2="340.2524" gradientTransform="matrix(-1 0 0 -1 -1054.123 514)">
				<stop  offset="0" style="stop-color:#015CAE"/>
				<stop  offset="1" style="stop-color:#1377D1"/>
			</linearGradient>
			<path class="st26" d="M313,173l12.3-7.2v0c2-1.1,4.6-0.9,7.5,0.7c6.5,3.7,11.7,13.7,11.7,22.3c0,4.7-1.6,8.1-4.1,9.5l0,0
				l-11.9,6.9L313,173z"/>
			<ellipse transform="matrix(0.92 -0.392 0.392 0.92 -48.4088 140.8788)" class="st27" cx="320.8" cy="189" rx="10.2" ry="17.9"/>
		</g>
		<g>
			
				<linearGradient id="SVGID_20_" gradientUnits="userSpaceOnUse" x1="-1362.3646" y1="318.5538" x2="-1359.0536" y2="324.2888" gradientTransform="matrix(-1 0 0 -1 -1054.123 514)">
				<stop  offset="0" style="stop-color:#43386B"/>
				<stop  offset="1" style="stop-color:#7662BD"/>
			</linearGradient>
			<path class="st28" d="M286.6,195.1l28.5-16.6v0c1.4-0.7,3.2-0.6,5.1,0.5c4.4,2.6,8,9.4,8,15.3c0,3.2-1.1,5.5-2.8,6.5l0,0
				l-28.2,16.4L286.6,195.1z"/>
			
				<linearGradient id="SVGID_21_" gradientUnits="userSpaceOnUse" x1="291.974" y1="292.889" x2="291.974" y2="321.847" gradientTransform="matrix(1 0 0 -1 0 514)">
				<stop  offset="0" style="stop-color:#43386B"/>
				<stop  offset="1" style="stop-color:#7662BD"/>
			</linearGradient>
			<path class="st29" d="M283.9,201.5c0-5.9,3.6-8.6,8-6.1c4.4,2.6,8,9.4,8,15.3s-3.6,8.6-8,6.1
				C287.5,214.3,283.9,207.4,283.9,201.5z"/>
		</g>
	</g>
</g>
</svg>
