<svg id="Capa_1" enable-background="new 0 0 510 510" height="512" viewBox="0 0 510 510" width="512" xmlns="http://www.w3.org/2000/svg" xmlns:xlink="http://www.w3.org/1999/xlink"><linearGradient id="lg1"><stop offset="0" stop-color="#3fa9f5"/><stop offset="1" stop-color="#666ad6"/></linearGradient><linearGradient id="SVGID_1_" gradientTransform="matrix(1 -.016 .016 1 -5.78 -5.923)" gradientUnits="userSpaceOnUse" x1="161.751" x2="185.25" xlink:href="#lg1" y1="145.762" y2="210.052"/><linearGradient id="lg2"><stop offset="0" stop-color="#a34a9e" stop-opacity="0"/><stop offset="1" stop-color="#343168"/></linearGradient><linearGradient id="SVGID_2_" gradientTransform="matrix(1 -.016 .016 1 -5.78 -5.923)" gradientUnits="userSpaceOnUse" x1="180.969" x2="107.661" xlink:href="#lg2" y1="185.835" y2="135.157"/><linearGradient id="SVGID_3_" gradientTransform="matrix(1 -.016 .016 1 -5.78 -5.923)" gradientUnits="userSpaceOnUse" x1="133.404" x2="156.313" y1="155.479" y2="170.918"><stop offset="0" stop-color="#ffe548"/><stop offset=".1758" stop-color="#ffde50"/><stop offset=".4446" stop-color="#ffca65"/><stop offset=".7709" stop-color="#ffaa87"/><stop offset="1" stop-color="#ff90a4"/></linearGradient><linearGradient id="lg3"><stop offset="0" stop-color="#d4f7ff"/><stop offset="1" stop-color="#a2e3e9"/></linearGradient><linearGradient id="SVGID_4_" gradientTransform="matrix(1 -.016 .016 1 -5.78 -5.923)" gradientUnits="userSpaceOnUse" x1="144.468" x2="157.168" xlink:href="#lg3" y1="162.984" y2="169.957"/><linearGradient id="SVGID_5_" gradientUnits="userSpaceOnUse" x1="108.856" x2="103.244" xlink:href="#lg1" y1="214.242" y2="245.81"/><linearGradient id="SVGID_6_" gradientTransform="matrix(.953 -.304 .304 .953 -114.54 -187.777)" gradientUnits="userSpaceOnUse" x1="414.623" x2="414.623" xlink:href="#lg3" y1="537.598" y2="547.498"/><linearGradient id="SVGID_7_" gradientTransform="matrix(.953 -.304 .304 .953 -114.54 -187.777)" gradientUnits="userSpaceOnUse" x1="361.416" x2="361.416" xlink:href="#lg3" y1="534.812" y2="555.677"/><linearGradient id="lg4"><stop offset="0" stop-color="#4f4a72"/><stop offset="1" stop-color="#3b395f"/></linearGradient><linearGradient id="SVGID_8_" gradientUnits="userSpaceOnUse" x1="308.542" x2="368.17" xlink:href="#lg4" y1="178.471" y2="256.337"/><linearGradient id="SVGID_9_" gradientUnits="userSpaceOnUse" x1="291.865" x2="226.923" y1="304.096" y2="239.154"><stop offset="0" stop-color="#3b395f" stop-opacity="0"/><stop offset="1" stop-color="#3b395f"/></linearGradient><linearGradient id="SVGID_10_" gradientUnits="userSpaceOnUse" x1="83.731" x2="99.283" xlink:href="#lg3" y1="282.872" y2="282.872"/><linearGradient id="SVGID_11_" gradientTransform="matrix(1 0 0 -1 0 453.84)" gradientUnits="userSpaceOnUse" x1="83.731" x2="99.283" xlink:href="#lg3" y1="83.862" y2="83.862"/><linearGradient id="SVGID_12_" gradientTransform="matrix(0 1 -1 0 -1618 2128)" gradientUnits="userSpaceOnUse" x1="-1809.351" x2="-1793.799" xlink:href="#lg3" y1="-1753.06" y2="-1753.06"/><linearGradient id="SVGID_13_" gradientTransform="matrix(0 1 1 0 -2071.84 2128)" gradientUnits="userSpaceOnUse" x1="-1809.351" x2="-1793.799" xlink:href="#lg3" y1="2119.794" y2="2119.794"/><linearGradient id="SVGID_18_" gradientTransform="matrix(.711 .704 -.704 .711 -363.262 1391.659)" gradientUnits="userSpaceOnUse" x1="-434.113" x2="-418.563" xlink:href="#lg3" y1="-1120.478" y2="-1120.478"/><linearGradient id="SVGID_19_" gradientTransform="matrix(.711 .704 .704 -.711 -681.911 1714.769)" gradientUnits="userSpaceOnUse" x1="-435.021" x2="-419.471" xlink:href="#lg3" y1="1487.172" y2="1487.172"/><linearGradient id="SVGID_20_" gradientTransform="matrix(-.704 .711 -.711 -.704 -3009.659 1764.738)" gradientUnits="userSpaceOnUse" x1="-3211.804" x2="-3196.253" xlink:href="#lg3" y1="-1235.238" y2="-1235.238"/><linearGradient id="SVGID_21_" gradientTransform="matrix(-.704 .711 .711 .704 -3332.769 1446.089)" gradientUnits="userSpaceOnUse" x1="-3212.712" x2="-3197.162" xlink:href="#lg3" y1="1601.932" y2="1601.932"/><linearGradient id="SVGID_22_" gradientTransform="matrix(-.351 .936 .936 .351 -2770.181 1918.757)" gradientUnits="userSpaceOnUse" x1="-2504.234" x2="-2488.682" xlink:href="#lg3" y1="2076.113" y2="2076.113"/><linearGradient id="SVGID_23_" gradientTransform="matrix(-.351 .936 -.936 -.351 -2344.871 2078.103)" gradientUnits="userSpaceOnUse" x1="-2503.959" x2="-2488.407" xlink:href="#lg3" y1="-1709.031" y2="-1709.031"/><linearGradient id="SVGID_24_" gradientTransform="matrix(.936 .351 .351 -.936 -209.243 1152.181)" gradientUnits="userSpaceOnUse" x1="-16.386" x2="-.833" xlink:href="#lg3" y1="835.244" y2="835.244"/><linearGradient id="SVGID_25_" gradientTransform="matrix(.936 .351 -.351 .936 -49.897 726.871)" gradientUnits="userSpaceOnUse" x1="-16.111" x2="-.559" xlink:href="#lg3" y1="-468.162" y2="-468.162"/><linearGradient id="SVGID_26_" gradientTransform="matrix(.373 .928 -.928 .373 -937.502 1898.074)" gradientUnits="userSpaceOnUse" x1="-1081.827" x2="-1066.277" xlink:href="#lg3" y1="-1584.664" y2="-1584.664"/><linearGradient id="SVGID_27_" gradientTransform="matrix(.373 .928 .928 -.373 -1358.009 2067.055)" gradientUnits="userSpaceOnUse" x1="-1081.675" x2="-1066.125" xlink:href="#lg3" y1="1950.731" y2="1950.731"/><linearGradient id="SVGID_28_" gradientTransform="matrix(-.928 .373 -.373 -.928 -3516.074 1190.498)" gradientUnits="userSpaceOnUse" x1="-3677.026" x2="-3661.476" xlink:href="#lg3" y1="-588.163" y2="-588.163"/><linearGradient id="SVGID_29_" gradientTransform="matrix(-.928 .373 .373 .928 -3685.055 769.991)" gradientUnits="userSpaceOnUse" x1="-3676.874" x2="-3661.324" xlink:href="#lg3" y1="954.23" y2="954.23"/><linearGradient id="SVGID_30_" gradientUnits="userSpaceOnUse" x1="9.301" x2="173.713" xlink:href="#lg3" y1="326.425" y2="326.425"/><linearGradient id="lg5"><stop offset="0" stop-color="#a34a9e"/><stop offset=".1551" stop-color="#9b489a"/><stop offset=".4019" stop-color="#84438f"/><stop offset=".7073" stop-color="#5e3b7d"/><stop offset="1" stop-color="#343168"/></linearGradient><radialGradient id="SVGID_31_" cx="73.318" cy="288.587" gradientUnits="userSpaceOnUse" r="153.26" xlink:href="#lg5"/><linearGradient id="SVGID_32_" gradientUnits="userSpaceOnUse" x1="67.279" x2="115.735" xlink:href="#lg3" y1="326.425" y2="326.425"/><linearGradient id="SVGID_33_" gradientUnits="userSpaceOnUse" x1="115.005" x2="93.723" y1="336.018" y2="322.95"><stop offset="0" stop-color="#a2e3e9" stop-opacity="0"/><stop offset="1" stop-color="#518cd2"/></linearGradient><radialGradient id="SVGID_34_" cx="92.388" cy="314.972" gradientUnits="userSpaceOnUse" r="27.212" xlink:href="#lg5"/><linearGradient id="SVGID_35_" gradientUnits="userSpaceOnUse" x1="410.715" x2="426.267" xlink:href="#lg3" y1="282.872" y2="282.872"/><linearGradient id="SVGID_36_" gradientTransform="matrix(1 0 0 -1 0 453.84)" gradientUnits="userSpaceOnUse" x1="410.715" x2="426.267" xlink:href="#lg3" y1="83.862" y2="83.862"/><linearGradient id="SVGID_37_" gradientTransform="matrix(0 1 -1 0 -1618 2128)" gradientUnits="userSpaceOnUse" x1="-1809.351" x2="-1793.799" xlink:href="#lg3" y1="-2080.044" y2="-2080.044"/><linearGradient id="SVGID_38_" gradientTransform="matrix(0 1 1 0 -2071.84 2128)" gradientUnits="userSpaceOnUse" x1="-1809.351" x2="-1793.799" xlink:href="#lg3" y1="2446.778" y2="2446.778"/><linearGradient id="SVGID_43_" gradientTransform="matrix(.711 .704 -.704 .711 -363.262 1391.659)" gradientUnits="userSpaceOnUse" x1="-201.759" x2="-186.209" xlink:href="#lg3" y1="-1350.543" y2="-1350.543"/><linearGradient id="SVGID_44_" gradientTransform="matrix(.711 .704 .704 -.711 -681.911 1714.769)" gradientUnits="userSpaceOnUse" x1="-202.667" x2="-187.117" xlink:href="#lg3" y1="1717.237" y2="1717.237"/><linearGradient id="SVGID_45_" gradientTransform="matrix(-.704 .711 -.711 -.704 -3009.659 1764.738)" gradientUnits="userSpaceOnUse" x1="-3441.869" x2="-3426.318" xlink:href="#lg3" y1="-1467.592" y2="-1467.592"/><linearGradient id="SVGID_46_" gradientTransform="matrix(-.704 .711 .711 .704 -3332.769 1446.089)" gradientUnits="userSpaceOnUse" x1="-3442.777" x2="-3427.227" xlink:href="#lg3" y1="1834.286" y2="1834.286"/><linearGradient id="SVGID_47_" gradientTransform="matrix(-.351 .936 .936 .351 -2770.181 1918.757)" gradientUnits="userSpaceOnUse" x1="-2619.141" x2="-2603.589" xlink:href="#lg3" y1="2382.251" y2="2382.251"/><linearGradient id="SVGID_48_" gradientTransform="matrix(-.351 .936 -.936 -.351 -2344.871 2078.103)" gradientUnits="userSpaceOnUse" x1="-2618.867" x2="-2603.315" xlink:href="#lg3" y1="-2015.169" y2="-2015.169"/><linearGradient id="SVGID_49_" gradientTransform="matrix(.936 .351 .351 -.936 -209.243 1152.181)" gradientUnits="userSpaceOnUse" x1="289.752" x2="305.304" xlink:href="#lg3" y1="950.152" y2="950.152"/><linearGradient id="SVGID_50_" gradientTransform="matrix(.936 .351 -.351 .936 -49.897 726.871)" gradientUnits="userSpaceOnUse" x1="290.026" x2="305.578" xlink:href="#lg3" y1="-583.07" y2="-583.07"/><linearGradient id="SVGID_51_" gradientTransform="matrix(.373 .928 -.928 .373 -937.502 1898.074)" gradientUnits="userSpaceOnUse" x1="-959.807" x2="-944.257" xlink:href="#lg3" y1="-1888.013" y2="-1888.013"/><linearGradient id="SVGID_52_" gradientTransform="matrix(.373 .928 .928 -.373 -1358.009 2067.055)" gradientUnits="userSpaceOnUse" x1="-959.655" x2="-944.105" xlink:href="#lg3" y1="2254.08" y2="2254.08"/><linearGradient id="SVGID_53_" gradientTransform="matrix(-.928 .373 -.373 -.928 -3516.074 1190.498)" gradientUnits="userSpaceOnUse" x1="-3980.375" x2="-3964.825" xlink:href="#lg3" y1="-710.183" y2="-710.183"/><linearGradient id="SVGID_54_" gradientTransform="matrix(-.928 .373 .373 .928 -3685.055 769.991)" gradientUnits="userSpaceOnUse" x1="-3980.222" x2="-3964.672" xlink:href="#lg3" y1="1076.25" y2="1076.25"/><linearGradient id="SVGID_55_" gradientUnits="userSpaceOnUse" x1="336.286" x2="500.697" xlink:href="#lg3" y1="326.425" y2="326.425"/><radialGradient id="SVGID_56_" cx="400.302" cy="288.587" gradientUnits="userSpaceOnUse" r="153.26" xlink:href="#lg5"/><linearGradient id="SVGID_57_" gradientUnits="userSpaceOnUse" x1="394.263" x2="442.719" xlink:href="#lg3" y1="326.425" y2="326.425"/><linearGradient id="SVGID_58_" gradientUnits="userSpaceOnUse" x1="313.278" x2="324.259" xlink:href="#lg4" y1="177.407" y2="205.098"/><linearGradient id="SVGID_59_" gradientUnits="userSpaceOnUse" x1="452.893" x2="451.315" xlink:href="#lg1" y1="137.456" y2="165.867"/><linearGradient id="SVGID_60_" gradientUnits="userSpaceOnUse" x1="368.816" x2="400.96" xlink:href="#lg1" y1="158.903" y2="216.761"/><linearGradient id="SVGID_61_" gradientTransform="matrix(.867 .499 -.499 .867 56.154 157.511)" gradientUnits="userSpaceOnUse" x1="109.896" x2="119.408" xlink:href="#lg4" y1="60.145" y2="60.145"/><linearGradient id="SVGID_62_" gradientTransform="matrix(.867 .499 -.499 .867 56.154 157.511)" gradientUnits="userSpaceOnUse" x1="107.77" x2="121.847" xlink:href="#lg3" y1="98.802" y2="98.802"/><linearGradient id="SVGID_63_" gradientTransform="matrix(.867 .499 -.499 .867 56.154 157.511)" gradientUnits="userSpaceOnUse" x1="107.743" x2="121.488" xlink:href="#lg3" y1="-51.11" y2="-51.11"/><linearGradient id="SVGID_64_" gradientUnits="userSpaceOnUse" x1="214.602" x2="226.35" xlink:href="#lg4" y1="96.05" y2="112.096"/><linearGradient id="SVGID_65_" gradientTransform="matrix(.946 .324 -.324 .946 -89.272 618.943)" gradientUnits="userSpaceOnUse" x1="123.053" x2="177.475" xlink:href="#lg4" y1="-584.931" y2="-584.931"/><linearGradient id="SVGID_66_" gradientTransform="matrix(.946 .324 -.324 .946 -89.272 618.943)" gradientUnits="userSpaceOnUse" x1="159.663" x2="177.475" xlink:href="#lg4" y1="-584.931" y2="-584.931"/><linearGradient id="SVGID_67_" gradientUnits="userSpaceOnUse" x1="332.526" x2="348.088" xlink:href="#lg4" y1="306.914" y2="379.541"/><linearGradient id="SVGID_68_" gradientUnits="userSpaceOnUse" x1="333.122" x2="346.463" xlink:href="#lg3" y1="309.7" y2="371.955"/><linearGradient id="SVGID_69_" gradientUnits="userSpaceOnUse" x1="304.63" x2="229.205" xlink:href="#lg2" y1="353.541" y2="279.548"/><linearGradient id="SVGID_70_" gradientUnits="userSpaceOnUse" x1="281.559" x2="226.525" xlink:href="#lg4" y1="375.852" y2="320.818"/><linearGradient id="SVGID_71_" gradientUnits="userSpaceOnUse" x1="225.156" x2="176.86" xlink:href="#lg4" y1="344.774" y2="296.479"/><linearGradient id="SVGID_72_" gradientTransform="matrix(.707 -.707 .707 .707 -46.237 210.9)" gradientUnits="userSpaceOnUse" x1="138.323" x2="138.698" xlink:href="#lg3" y1="237.738" y2="250.713"/><linearGradient id="SVGID_73_" gradientTransform="matrix(.707 -.707 .707 .707 -46.237 210.9)" gradientUnits="userSpaceOnUse" x1="138.323" x2="138.698" xlink:href="#lg3" y1="250.414" y2="263.389"/><linearGradient id="SVGID_74_" gradientTransform="matrix(.707 -.707 .707 .707 -46.237 210.9)" gradientUnits="userSpaceOnUse" x1="138.323" x2="138.698" xlink:href="#lg3" y1="263.09" y2="276.065"/><linearGradient id="SVGID_75_" gradientTransform="matrix(.707 -.707 .707 .707 -46.237 210.9)" gradientUnits="userSpaceOnUse" x1="155.404" x2="66.347" xlink:href="#lg2" y1="241.224" y2="241.224"/><linearGradient id="SVGID_76_" gradientTransform="matrix(.707 -.707 .707 .707 -46.237 210.9)" gradientUnits="userSpaceOnUse" x1="155.404" x2="66.347" xlink:href="#lg2" y1="253.9" y2="253.9"/><linearGradient id="SVGID_77_" gradientTransform="matrix(.707 -.707 .707 .707 -46.237 210.9)" gradientUnits="userSpaceOnUse" x1="155.404" x2="66.347" xlink:href="#lg2" y1="266.576" y2="266.576"/><linearGradient id="SVGID_78_" gradientUnits="userSpaceOnUse" x1="246.894" x2="280.597" xlink:href="#lg3" y1="298.523" y2="339.128"/><linearGradient id="SVGID_79_" gradientUnits="userSpaceOnUse" x1="273.634" x2="227.689" xlink:href="#lg2" y1="339.677" y2="293.732"/><linearGradient id="SVGID_80_" gradientUnits="userSpaceOnUse" x1="243.39" x2="267.351" xlink:href="#lg3" y1="307.254" y2="336.123"/><radialGradient id="SVGID_81_" cx="419.372" cy="314.972" gradientUnits="userSpaceOnUse" r="27.212" xlink:href="#lg5"/><linearGradient id="SVGID_82_" gradientUnits="userSpaceOnUse" x1="202.888" x2="249.051" xlink:href="#lg1" y1="189.639" y2="310.259"/><linearGradient id="SVGID_83_" gradientUnits="userSpaceOnUse" x1="347.382" x2="490.489" xlink:href="#lg2" y1="179.977" y2="254.336"/><path d="m190.977 136.033-.053-3.442-.002-.135c-.094-6.939-5.848-12.528-12.787-12.42l-12.733.198c-18.55.288-33.354 15.56-33.066 34.11l.054 3.442c.227 14.62 12.263 26.287 26.882 26.06l46.2-.717-.138-8.89c-.124-8.002-3.195-15.593-8.297-21.759-3.701-4.474-5.962-10.189-6.06-16.447z" fill="url(#SVGID_1_)"/><path d="m200.063 183.212-53.036-51.413c-1.203-1.336-2.513-2.248-3.89-2.652-6.771 6.257-10.956 15.254-10.801 25.197l.054 3.442c.227 14.62 12.263 26.287 26.882 26.06z" fill="url(#SVGID_2_)"/><path d="m153.23 155.288c.208 13.384-4.528 24.31-10.579 24.404-6.05.094-11.124-10.68-11.332-24.064s4.528-24.31 10.579-24.404 11.125 10.68 11.332 24.064z" fill="url(#SVGID_3_)"/><path d="m141.473 128.907c-.011 0-.021 0-.032.001-1.285.027-1.884 1.646-.982 2.561 4.13 4.192 7.083 13.3 7.248 23.906s-2.504 19.801-6.502 24.12c-.873.943-.224 2.542 1.061 2.529h.032c6.631-.103 11.821-12.077 11.593-26.745-.228-14.669-5.788-26.475-12.418-26.372z" fill="url(#SVGID_4_)"/><path d="m177.203 243.603c-18.713-26.582-49.631-43.952-84.609-43.952-22.785 0-43.847 7.371-60.934 19.857-6.319 4.617-.82 14.561 6.458 11.687 13.664-5.396 28.66-8.376 44.393-8.376 39.225 0 73.854 18.536 94.692 46.84z" fill="url(#SVGID_5_)"/><path d="m470.587 199.834-47.371 15.129c-2.027.647-4.194-.471-4.842-2.498l-1.993-6.24c-.647-2.027.471-4.194 2.498-4.841l47.371-15.129c2.027-.647 4.194.471 4.842 2.498l1.993 6.24c.647 2.026-.472 4.193-2.498 4.841z" fill="url(#SVGID_6_)"/><path d="m448.542 215.162-99.847 31.888c-4.272 1.364-8.841-.993-10.205-5.264l-4.2-13.152c-1.364-4.272.993-8.841 5.264-10.205l99.847-31.888c4.272-1.364 8.841.993 10.205 5.265l4.2 13.152c1.365 4.271-.992 8.84-5.264 10.204z" fill="url(#SVGID_7_)"/><path d="m394.483 161.511c-9.591 4.943-18.409 11.394-26.074 19.191-15.901 16.172-37.63 25.28-60.31 25.28h-130.896v34.115c0 9.989 2.588 19.807 7.511 28.498l25.464 44.954h119.882c0-27.875 10.207-54.817 28.786-75.598 44.426-49.691 99.725-65.369 126.046-70.193 4.762-.873 9.057-3.083 12.465-6.248h-102.874z" fill="url(#SVGID_8_)"/><path d="m296.129 321.321h-58.881c-10.534 0-19.073-8.539-19.073-19.073v-46.656c0-10.534 8.539-19.073 19.073-19.073h58.881c10.534 0 19.073 8.539 19.073 19.073v46.656c0 10.534-8.539 19.073-19.073 19.073z" fill="url(#SVGID_9_)"/><path d="m99.283 320.231h-15.552l2.904-74.719h9.743zm-13.939-1.551h12.325l-2.783-71.617h-6.759z" fill="url(#SVGID_10_)"/><path d="m96.378 407.338h-9.743l-2.904-74.719h15.551zm-8.25-1.551h6.759l2.783-71.617h-12.326z" fill="url(#SVGID_11_)"/><path d="m97.7 334.2v-15.551l74.719 2.905v9.742zm1.552-13.938v12.325l71.617-2.783v-6.758z" fill="url(#SVGID_12_)"/><path d="m85.313 334.2-74.719-2.904v-9.742l74.719-2.905zm-73.168-4.396 71.617 2.783v-12.325l-71.617 2.783z" fill="url(#SVGID_13_)"/><path d="m99.283 320.231h-15.552l2.904-74.719h9.743zm-13.939-1.551h12.325l-2.783-71.617h-6.759z" fill="url(#SVGID_10_)"/><path d="m96.378 407.338h-9.743l-2.904-74.719h15.551zm-8.25-1.551h6.759l2.783-71.617h-12.326z" fill="url(#SVGID_11_)"/><path d="m97.7 334.2v-15.551l74.719 2.905v9.742zm1.552-13.938v12.325l71.617-2.783v-6.758z" fill="url(#SVGID_12_)"/><path d="m85.313 334.2-74.719-2.904v-9.742l74.719-2.905zm-73.168-4.396 71.617 2.783v-12.325l-71.617 2.783z" fill="url(#SVGID_13_)"/><path d="m101.389 327.494-11.05-10.941 54.634-51.057 6.922 6.855zm-8.813-10.909 8.759 8.672 48.409-52.852-4.803-4.755z" fill="url(#SVGID_18_)"/><path d="m38.041 387.353-6.922-6.855 50.505-55.142 11.05 10.941zm-4.771-6.908 4.803 4.755 52.365-48.936-8.759-8.672z" fill="url(#SVGID_19_)"/><path d="m145.58 386.813-55.143-50.505 10.941-11.051 51.057 54.634zm-52.905-50.56 52.852 48.409 4.755-4.803-48.936-52.365z" fill="url(#SVGID_20_)"/><path d="m81.635 327.593-51.057-54.634 6.855-6.922 55.143 50.505zm-48.904-54.602 48.936 52.365 8.672-8.759-52.852-48.409z" fill="url(#SVGID_21_)"/><path d="m82.976 331.529-68.935-28.975 3.424-9.121 70.975 23.536zm-66.958-29.827 66.072 27.771 4.331-11.54-68.028-22.559z" fill="url(#SVGID_22_)"/><path d="m165.548 359.417-70.975-23.536 5.464-14.56 68.935 28.975zm-68.956-24.501 68.028 22.559 2.375-6.328-66.072-27.771z" fill="url(#SVGID_23_)"/><path d="m67.635 403.89-9.121-3.424 23.536-70.975 14.56 5.464zm-7.179-4.352 6.328 2.375 27.771-66.072-11.54-4.331z" fill="url(#SVGID_24_)"/><path d="m100.963 323.358-14.56-5.464 28.975-68.935 9.121 3.424zm-12.504-6.35 11.54 4.331 22.559-68.028-6.328-2.375z" fill="url(#SVGID_25_)"/><path d="m100.154 331.327-5.803-14.427 70.405-25.189 3.636 9.039zm-3.762-13.509 4.6 11.434 65.405-29.308-2.521-6.27z" fill="url(#SVGID_26_)"/><path d="m18.257 361.139-3.636-9.039 68.239-30.577 5.803 14.427zm-1.64-8.234 2.521 6.27 67.484-24.144-4.6-11.434z" fill="url(#SVGID_27_)"/><path d="m117.182 403.311-30.577-68.239 14.427-5.803 25.189 70.406zm-28.502-67.401 29.308 65.405 6.27-2.521-24.144-67.484z" fill="url(#SVGID_28_)"/><path d="m81.982 323.58-25.189-70.405 9.039-3.636 30.577 68.239zm-23.226-69.524 24.143 67.484 11.435-4.6-29.308-65.405z" fill="url(#SVGID_29_)"/><path d="m91.507 244.219c-45.401 0-82.206 36.805-82.206 82.206s36.805 82.206 82.206 82.206 82.206-36.805 82.206-82.206c-.001-45.401-36.805-82.206-82.206-82.206zm0 151.435c-38.234 0-69.229-30.995-69.229-69.229s30.995-69.229 69.229-69.229 69.229 30.995 69.229 69.229-30.995 69.229-69.229 69.229z" fill="url(#SVGID_30_)"/><path d="m176.889 335.209c.237-1.665 1.262-3.225 3.024-4.014l.026-.018c4.102-1.84 4.102-7.66 0-9.509l-.026-.009c-1.762-.789-2.787-2.349-3.024-4.014-.009-.123-.026-.254-.044-.386-.105-1.683.578-3.427 2.139-4.566 1.464-1.069 2.147-2.638 2.147-4.181 0-2.296-1.49-4.557-4.119-5.127h-.009c-1.84-.403-3.164-1.674-3.76-3.208-.079-.21-.149-.412-.201-.631-.395-1.578-.07-3.348 1.174-4.733l.009-.009c2.997-3.357.622-8.686-3.874-8.694h-.009c-1.893-.009-3.444-.973-4.347-2.366-.088-.149-.175-.298-.272-.447-.762-1.481-.841-3.331.105-4.987l.009-.018c2.235-3.9-1.192-8.615-5.592-7.686h-.009c-2.051.429-3.944-.386-5.11-1.797-1.06-1.297-1.516-3.085-.929-4.899l.009-.018c1.376-4.277-2.954-8.177-7.073-6.363l-.009.009c-1.919.841-3.944.438-5.373-.71-1.306-1.043-2.112-2.699-1.919-4.592v-.009c.464-4.479-4.584-7.397-8.23-4.768l-.018.009c-1.481 1.069-3.243 1.227-4.75.701-.044-.018-.079-.035-.114-.044-.184-.07-.359-.14-.535-.237-1.49-.745-2.621-2.191-2.831-4.084v-.009c-.482-4.47-6.03-6.275-9.053-2.936-1.06 1.174-2.463 1.718-3.848 1.718-.263 0-.526-.018-.789-.061-.026-.009-.053-.018-.088-.018-.175-.026-.342-.061-.508-.114-1.595-.421-2.989-1.595-3.585-3.392l-.009-.018c-1.402-4.277-7.204-4.882-9.457-.99l-.009.009c-1.008 1.726-2.752 2.594-4.505 2.594s-3.506-.868-4.514-2.594v-.009c-2.261-3.891-8.054-3.287-9.457.99l-.009.018c-.596 1.797-1.99 2.971-3.585 3.392-.167.053-.333.088-.508.114-.035 0-.061.009-.088.018-1.621.254-3.374-.254-4.636-1.656h-.009c-3.015-3.339-8.563-1.534-9.045 2.936v.009c-.21 1.893-1.341 3.339-2.831 4.084-.175.096-.351.167-.535.237-.035.009-.07.026-.114.044-1.516.526-3.269.368-4.759-.701l-.009-.009c-3.646-2.629-8.694.289-8.23 4.768v.009c.193 1.893-.622 3.549-1.919 4.592-1.429 1.148-3.453 1.56-5.373.71l-.018-.009c-4.111-1.814-8.44 2.086-7.064 6.363v.018c.605 1.88.096 3.733-1.042 5.031-.027.03-.054.061-.081.091-1.172 1.276-2.968 1.981-4.907 1.573h0c-4.408-.92-7.835 3.786-5.6 7.695l.009.009c.947 1.648.877 3.488.123 4.969-.105.158-.193.315-.28.473-.903 1.385-2.463 2.358-4.356 2.366-3.12.009-5.215 2.559-5.215 5.241 0 1.192.412 2.41 1.341 3.444l.009.009c1.236 1.376 1.569 3.138 1.183 4.706-.009.009-.018.018-.009.026-.061.245-.14.482-.237.719-.613 1.499-1.919 2.726-3.725 3.12h-.009c-4.4.955-5.609 6.652-1.972 9.308 1.446 1.052 2.147 2.629 2.147 4.198 0 .088 0 .184-.009.272-.009.167-.026.324-.053.482-.009.017-.009.035 0 .053-.254 1.648-1.288 3.181-3.024 3.961l-.018.009c-4.102 1.849-4.102 7.669 0 9.509l.018.018c1.735.78 2.769 2.314 3.024 3.961-.009.018-.009.035 0 .053.026.158.044.315.053.482.088 1.648-.605 3.357-2.138 4.47-1.464 1.069-2.147 2.629-2.147 4.181 0 2.296 1.49 4.557 4.119 5.127h.009c1.805.386 3.111 1.613 3.725 3.12.105.245.184.499.245.762.377 1.569.044 3.313-1.183 4.689l-.009.009c-3.006 3.357-.631 8.677 3.874 8.685 1.884.009 3.427.955 4.33 2.331.123.175.228.351.324.543.359.719.561 1.516.561 2.34 0 .868-.219 1.753-.701 2.585l-.009.018c-2.235 3.909 1.201 8.615 5.6 7.695l.009-.009c2.051-.429 3.944.386 5.11 1.805 1.052 1.288 1.507 3.085.929 4.899l-.009.009c-1.376 4.286 2.953 8.186 7.064 6.372l.018-.009c1.785-.786 3.655-.486 5.061.482.057.042.116.082.174.124.005.003.01.007.014.01 1.372 1.036 2.245 2.734 2.043 4.686v.009c-.465 4.47 4.584 7.388 8.23 4.759l.017-.009c1.507-1.087 3.295-1.227 4.82-.675.018.009.035.017.044.017.184.07.36.149.535.237 1.49.745 2.621 2.2 2.831 4.093.307 2.892 2.734 4.663 5.215 4.663 1.376 0 2.761-.535 3.83-1.718l.009-.009c1.262-1.393 3.006-1.902 4.636-1.656.026.009.053.018.088.018.175.026.342.061.508.114 1.595.429 2.989 1.604 3.585 3.392l.009.026c1.402 4.268 7.196 4.873 9.457.982v-.009c1.008-1.727 2.761-2.594 4.514-2.594s3.497.868 4.505 2.594l.009.009c2.253 3.891 8.054 3.287 9.457-.982l.009-.026c.596-1.788 1.99-2.962 3.585-3.392.167-.053.333-.088.508-.114.035 0 .061-.009.088-.018 1.63-.245 3.374.263 4.636 1.656l.009.009c3.015 3.339 8.563 1.534 9.045-2.945.21-1.893 1.341-3.348 2.831-4.093.175-.088.351-.167.535-.237.009 0 .026-.009.044-.017.57-.21 1.174-.316 1.788-.316 1.034 0 2.086.307 3.033.99l.018.009c3.646 2.629 8.694-.289 8.23-4.759v-.009c-.203-1.963.679-3.669 2.063-4.703.044-.032.09-.063.134-.095.002-.001.004-.003.006-.004 1.408-.984 3.293-1.291 5.089-.5h.018c4.11 1.823 8.44-2.077 7.064-6.363l-.009-.018c-.579-1.814-.132-3.602.929-4.891 1.166-1.42 3.059-2.235 5.11-1.805l.009.009c4.4.92 7.826-3.795 5.6-7.695l-.009-.018c-.938-1.639-.876-3.471-.132-4.943.018-.017.026-.035.026-.053.088-.167.175-.324.28-.473.911-1.376 2.454-2.322 4.33-2.331h.009c4.496-.009 6.871-5.337 3.874-8.685l-.009-.009c-1.236-1.376-1.569-3.138-1.183-4.715.009-.009.009-.017.009-.026.052-.21.123-.421.201-.622.596-1.543 1.919-2.813 3.76-3.208h.009c4.4-.955 5.609-6.661 1.972-9.308-1.446-1.052-2.147-2.638-2.147-4.207 0-.123 0-.245.009-.359.01-.127.028-.259.036-.381zm-85.381 63.497c-39.921 0-72.288-32.358-72.288-72.279s32.367-72.288 72.288-72.288 72.279 32.367 72.279 72.288-32.358 72.279-72.279 72.279z" fill="url(#SVGID_31_)"/><circle cx="91.507" cy="326.425" fill="url(#SVGID_32_)" r="24.228"/><path d="m98.815 303.324-12.75 33.655 12.597 12.597c9.887-3.052 17.073-12.262 17.073-23.151 0-10.833-7.113-20.001-16.92-23.101z" fill="url(#SVGID_33_)"/><circle cx="91.507" cy="326.425" fill="url(#SVGID_34_)" r="11.876"/><path d="m426.267 320.231h-15.551l2.905-74.719h9.742zm-13.938-1.551h12.325l-2.783-71.617h-6.759z" fill="url(#SVGID_35_)"/><path d="m423.362 407.338h-9.742l-2.905-74.719h15.551zm-8.25-1.551h6.759l2.783-71.617h-12.325z" fill="url(#SVGID_36_)"/><path d="m424.685 334.2v-15.551l74.719 2.905v9.742zm1.551-13.938v12.325l71.617-2.783v-6.758z" fill="url(#SVGID_37_)"/><path d="m412.297 334.2-74.719-2.904v-9.742l74.719-2.905zm-73.168-4.396 71.617 2.783v-12.325l-71.617 2.783z" fill="url(#SVGID_38_)"/><path d="m426.267 320.231h-15.551l2.905-74.719h9.742zm-13.938-1.551h12.325l-2.783-71.617h-6.759z" fill="url(#SVGID_35_)"/><path d="m423.362 407.338h-9.742l-2.905-74.719h15.551zm-8.25-1.551h6.759l2.783-71.617h-12.325z" fill="url(#SVGID_36_)"/><path d="m424.685 334.2v-15.551l74.719 2.905v9.742zm1.551-13.938v12.325l71.617-2.783v-6.758z" fill="url(#SVGID_37_)"/><path d="m412.297 334.2-74.719-2.904v-9.742l74.719-2.905zm-73.168-4.396 71.617 2.783v-12.325l-71.617 2.783z" fill="url(#SVGID_38_)"/><path d="m428.374 327.494-11.051-10.941 54.634-51.057 6.922 6.855zm-8.814-10.909 8.759 8.672 48.409-52.852-4.803-4.755z" fill="url(#SVGID_43_)"/><path d="m365.025 387.353-6.922-6.855 50.505-55.142 11.05 10.941zm-4.771-6.908 4.803 4.755 52.365-48.936-8.759-8.672z" fill="url(#SVGID_44_)"/><path d="m472.564 386.813-55.143-50.505 10.941-11.051 51.057 54.634zm-52.905-50.56 52.852 48.409 4.755-4.803-48.936-52.365z" fill="url(#SVGID_45_)"/><path d="m408.62 327.593-51.057-54.634 6.855-6.922 55.143 50.505zm-48.904-54.602 48.936 52.365 8.672-8.759-52.852-48.409z" fill="url(#SVGID_46_)"/><path d="m409.96 331.529-68.935-28.975 3.424-9.121 70.975 23.536zm-66.958-29.827 66.072 27.771 4.331-11.54-68.028-22.559z" fill="url(#SVGID_47_)"/><path d="m492.533 359.417-70.975-23.536 5.464-14.56 68.935 28.975zm-68.956-24.501 68.028 22.559 2.375-6.328-66.072-27.771z" fill="url(#SVGID_48_)"/><path d="m394.62 403.89-9.121-3.424 23.536-70.975 14.56 5.464zm-7.179-4.352 6.328 2.375 27.771-66.072-11.54-4.331z" fill="url(#SVGID_49_)"/><path d="m427.947 323.358-14.56-5.464 28.975-68.935 9.121 3.424zm-12.504-6.35 11.54 4.331 22.559-68.028-6.328-2.375z" fill="url(#SVGID_50_)"/><path d="m427.138 331.327-5.803-14.427 70.405-25.189 3.636 9.039zm-3.762-13.509 4.6 11.434 65.405-29.308-2.521-6.27z" fill="url(#SVGID_51_)"/><path d="m345.241 361.139-3.636-9.039 68.239-30.577 5.803 14.427zm-1.64-8.234 2.521 6.27 67.483-24.144-4.6-11.434z" fill="url(#SVGID_52_)"/><path d="m444.166 403.311-30.577-68.239 14.427-5.803 25.189 70.406zm-28.502-67.401 29.308 65.405 6.27-2.521-24.144-67.484z" fill="url(#SVGID_53_)"/><path d="m408.966 323.58-25.189-70.405 9.039-3.636 30.577 68.239zm-23.226-69.524 24.143 67.484 11.435-4.6-29.308-65.405z" fill="url(#SVGID_54_)"/><path d="m418.491 244.219c-45.401 0-82.206 36.805-82.206 82.206s36.805 82.206 82.206 82.206 82.206-36.805 82.206-82.206-36.805-82.206-82.206-82.206zm0 151.435c-38.234 0-69.229-30.995-69.229-69.229s30.995-69.229 69.229-69.229 69.229 30.995 69.229 69.229-30.995 69.229-69.229 69.229z" fill="url(#SVGID_55_)"/><path d="m503.874 335.209c.237-1.665 1.262-3.225 3.024-4.014l.026-.018c4.102-1.84 4.102-7.66 0-9.509l-.026-.009c-1.762-.789-2.787-2.349-3.024-4.014-.009-.123-.026-.254-.044-.386-.105-1.683.578-3.427 2.139-4.566 1.464-1.069 2.147-2.638 2.147-4.181 0-2.296-1.49-4.557-4.119-5.127h-.009c-1.84-.403-3.164-1.674-3.76-3.208-.079-.21-.149-.412-.202-.631-.395-1.578-.07-3.348 1.174-4.733l.009-.009c2.997-3.357.622-8.686-3.874-8.694h-.009c-1.893-.009-3.444-.973-4.347-2.366-.088-.149-.175-.298-.272-.447-.762-1.481-.841-3.331.105-4.987l.009-.018c2.235-3.9-1.192-8.615-5.592-7.686h-.009c-2.051.429-3.944-.386-5.11-1.797-1.06-1.297-1.516-3.085-.929-4.899l.009-.018c1.376-4.277-2.954-8.177-7.073-6.363l-.009.009c-1.92.841-3.944.438-5.373-.71-1.306-1.043-2.112-2.699-1.919-4.592v-.009c.465-4.479-4.584-7.397-8.229-4.768l-.018.009c-1.481 1.069-3.243 1.227-4.75.701-.044-.018-.079-.035-.114-.044-.184-.07-.359-.14-.535-.237-1.49-.745-2.62-2.191-2.831-4.084v-.009c-.482-4.47-6.03-6.275-9.053-2.936-1.06 1.174-2.463 1.718-3.848 1.718-.263 0-.526-.018-.789-.061-.026-.009-.053-.018-.088-.018-.175-.026-.342-.061-.508-.114-1.595-.421-2.989-1.595-3.584-3.392l-.009-.018c-1.402-4.277-7.204-4.882-9.457-.99l-.009.009c-1.008 1.726-2.752 2.594-4.505 2.594s-3.506-.868-4.514-2.594v-.009c-2.261-3.891-8.054-3.287-9.457.99l-.009.018c-.596 1.797-1.99 2.971-3.585 3.392-.167.053-.333.088-.508.114-.035 0-.061.009-.088.018-1.621.254-3.374-.254-4.636-1.656h-.009c-3.015-3.339-8.563-1.534-9.045 2.936v.009c-.21 1.893-1.341 3.339-2.831 4.084-.175.096-.351.167-.535.237-.035.009-.07.026-.114.044-1.516.526-3.269.368-4.759-.701l-.009-.009c-3.646-2.629-8.694.289-8.23 4.768v.009c.193 1.893-.622 3.549-1.919 4.592-1.429 1.148-3.453 1.56-5.372.71l-.018-.009c-4.111-1.814-8.44 2.086-7.064 6.363v.018c.605 1.88.096 3.733-1.042 5.031-.027.03-.054.061-.081.091-1.172 1.276-2.968 1.981-4.908 1.573h-.009c-4.408-.92-7.835 3.786-5.6 7.695l.009.009c.947 1.648.876 3.488.123 4.969-.105.158-.193.315-.28.473-.903 1.385-2.463 2.358-4.356 2.366-3.12.009-5.215 2.559-5.215 5.241 0 1.192.412 2.41 1.341 3.444l.009.009c1.236 1.376 1.569 3.138 1.183 4.706-.009.009-.017.018-.009.026-.061.245-.14.482-.237.719-.613 1.499-1.919 2.726-3.725 3.12h-.009c-4.4.955-5.609 6.652-1.972 9.308 1.446 1.052 2.147 2.629 2.147 4.198 0 .088 0 .184-.009.272-.009.167-.026.324-.053.482-.009.017-.009.035 0 .053-.254 1.648-1.288 3.181-3.024 3.961l-.018.009c-4.102 1.849-4.102 7.669 0 9.509l.018.018c1.735.78 2.77 2.314 3.024 3.961-.009.018-.009.035 0 .053.026.158.044.315.053.482.088 1.648-.605 3.357-2.138 4.47-1.464 1.069-2.147 2.629-2.147 4.181 0 2.296 1.49 4.557 4.119 5.127h.009c1.805.386 3.111 1.613 3.725 3.12.105.245.184.499.245.762.377 1.569.044 3.313-1.183 4.689l-.009.009c-3.006 3.357-.631 8.677 3.874 8.685 1.884.009 3.427.955 4.33 2.331.123.175.228.351.324.543.359.719.561 1.516.561 2.34 0 .868-.219 1.753-.701 2.585l-.009.018c-2.235 3.909 1.201 8.615 5.6 7.695l.009-.009c2.051-.429 3.944.386 5.11 1.805 1.052 1.288 1.507 3.085.929 4.899l-.009.009c-1.376 4.286 2.953 8.186 7.064 6.372l.018-.009c1.785-.786 3.655-.486 5.061.482.057.042.116.082.174.124.005.003.01.007.014.01 1.372 1.036 2.245 2.734 2.043 4.686v.009c-.465 4.47 4.584 7.388 8.23 4.759l.017-.009c1.508-1.087 3.295-1.227 4.82-.675.018.009.035.017.044.017.184.07.359.149.535.237 1.49.745 2.621 2.2 2.831 4.093.307 2.892 2.734 4.663 5.215 4.663 1.376 0 2.761-.535 3.83-1.718l.009-.009c1.262-1.393 3.006-1.902 4.636-1.656.026.009.052.018.088.018.175.026.342.061.508.114 1.595.429 2.989 1.604 3.585 3.392l.009.026c1.402 4.268 7.195 4.873 9.457.982v-.009c1.008-1.727 2.761-2.594 4.514-2.594s3.497.868 4.505 2.594l.009.009c2.253 3.891 8.054 3.287 9.457-.982l.009-.026c.596-1.788 1.989-2.962 3.584-3.392.167-.053.333-.088.508-.114.035 0 .061-.009.088-.018 1.63-.245 3.374.263 4.636 1.656l.009.009c3.015 3.339 8.563 1.534 9.045-2.945.21-1.893 1.341-3.348 2.831-4.093.175-.088.351-.167.535-.237.009 0 .026-.009.044-.017.569-.21 1.174-.316 1.788-.316 1.034 0 2.086.307 3.033.99l.018.009c3.646 2.629 8.694-.289 8.229-4.759v-.009c-.203-1.963.679-3.669 2.063-4.703.044-.032.09-.063.134-.095.002-.001.004-.003.006-.004 1.408-.984 3.292-1.291 5.089-.5h.017c4.11 1.823 8.44-2.077 7.064-6.363l-.009-.018c-.578-1.814-.132-3.602.929-4.891 1.166-1.42 3.059-2.235 5.11-1.805l.009.009c4.4.92 7.826-3.795 5.6-7.695l-.009-.018c-.938-1.639-.876-3.471-.132-4.943.017-.017.026-.035.026-.053.088-.167.175-.324.28-.473.911-1.376 2.454-2.322 4.33-2.331h.009c4.496-.009 6.871-5.337 3.874-8.685l-.009-.009c-1.236-1.376-1.569-3.138-1.183-4.715.009-.009.009-.017.009-.026.052-.21.123-.421.202-.622.596-1.543 1.919-2.813 3.76-3.208h.009c4.4-.955 5.609-6.661 1.972-9.308-1.446-1.052-2.147-2.638-2.147-4.207 0-.123 0-.245.009-.359.02-.127.037-.259.046-.381zm-85.382 63.497c-39.921 0-72.288-32.358-72.288-72.279s32.366-72.288 72.288-72.288c39.921 0 72.279 32.367 72.279 72.288s-32.357 72.279-72.279 72.279z" fill="url(#SVGID_56_)"/><circle cx="418.491" cy="326.425" fill="url(#SVGID_57_)" r="24.228"/><path d="m388.355 161.511-63.377 55.243h-77.477l14.468-27.758c3.925-7.534 14.574-10.333 22.634-5.945 4.967 2.715 11.27 2.788 16.32.189l23.297-12.006c12.364-6.366 26.454-9.723 40.817-9.723z" fill="url(#SVGID_58_)"/><path d="m493.578 163.151h-84.19c0-12.766 10.349-23.114 23.115-23.114h37.961c12.766 0 23.114 10.349 23.114 23.114z" fill="url(#SVGID_59_)"/><path d="m507.568 157.002c-3.767 8.833-12.306 14.656-21.901 15.02-33.24 1.258-113.2 12.706-170.464 89.332-4.14 5.539-12.209 6.159-17.098 1.269l-31.561-31.561c-4.623-4.623-4.623-12.118 0-16.741l4.674-4.674c3.073-3.073 8.054-3.073 11.127 0 7.845 7.845 20.28 8.685 29.109 1.967l57.076-43.43c17.799-13.543 39.547-20.877 61.913-20.877h70.721c4.992.001 8.363 5.102 6.404 9.695z" fill="url(#SVGID_60_)"/><path d="m102.449 307.271c-2.692-1.548-3.619-4.986-2.071-7.678l40.85-71.022c1.548-2.692 4.986-3.619 7.678-2.071 2.692 1.548 3.619 4.986 2.071 7.678l-40.85 71.022c-1.549 2.692-4.986 3.619-7.678 2.071z" fill="url(#SVGID_61_)"/><path d="m88.396 332.615c-3.875-2.229-5.21-7.177-2.981-11.053l28.337-50.18c2.229-3.875 7.177-5.21 11.053-2.981 3.875 2.229 5.21 7.178 2.981 11.053l-28.337 50.181c-2.229 3.874-7.177 5.209-11.053 2.98z" fill="url(#SVGID_62_)"/><path d="m143.764 235.44c-3.875-2.229-5.21-7.178-2.981-11.053l66.751-115.915c2.229-3.875 7.178-5.21 11.053-2.981 3.875 2.229 5.21 7.177 2.981 11.053l-66.751 115.915c-2.229 3.875-7.178 5.21-11.053 2.981z" fill="url(#SVGID_63_)"/><circle cx="222.839" cy="107.301" fill="url(#SVGID_64_)" r="14.757"/><path d="m255.75 128.889-33.329-11.398c-5.016-1.715-7.692-7.173-5.977-12.189 1.715-5.016 7.173-7.692 12.189-5.977l33.329 11.397c5.016 1.715 7.692 7.173 5.977 12.189-1.716 5.017-7.173 7.693-12.189 5.978z" fill="url(#SVGID_65_)"/><path d="m255.75 128.889 1.312.449c-5.016-1.715-7.692-7.173-5.977-12.189 1.715-5.016 7.173-7.692 12.189-5.977l-1.312-.449c5.016 1.715 7.692 7.173 5.977 12.189-1.716 5.016-7.173 7.692-12.189 5.977z" fill="url(#SVGID_66_)"/><path d="m420.19 349.054h-166.968c-12.499 0-22.631-10.132-22.631-22.631 0-12.499 10.132-22.631 22.631-22.631h166.968c12.499 0 22.631 10.132 22.631 22.631 0 12.499-10.132 22.631-22.631 22.631z" fill="url(#SVGID_67_)"/><path d="m253.222 343.326c-9.32 0-16.903-7.582-16.903-16.903 0-9.32 7.583-16.903 16.903-16.903h166.968c9.32 0 16.902 7.583 16.902 16.903s-7.582 16.903-16.902 16.903z" fill="url(#SVGID_68_)"/><path d="m253.421 349.054h92.396l-45.171-45.171-.114-.092h-47.111z" fill="url(#SVGID_69_)"/><path d="m246.595 370.614c-12.077 0-24.183-2.406-35.648-7.247l-7.568-3.196c-4.235-1.789-6.219-6.672-4.43-10.907 1.788-4.235 6.67-6.221 10.907-4.43l7.568 3.196c20.777 8.772 44.132 7.772 64.082-2.747l16.078-8.478c4.068-2.145 9.103-.586 11.247 3.481 2.144 4.066.586 9.102-3.481 11.246l-16.078 8.477c-13.375 7.053-28.004 10.605-42.677 10.605z" fill="url(#SVGID_70_)"/><path d="m205.92 360.554c-1.658 0-3.332-.494-4.79-1.522-3.757-2.649-4.656-7.843-2.006-11.601l9.175-13.012c2.498-3.543 2.557-8.346.146-11.95l-19.276-28.817c-2.556-3.821-1.53-8.991 2.291-11.547 3.821-2.555 8.991-1.53 11.547 2.291l19.276 28.817c6.214 9.289 6.061 21.667-.378 30.801l-9.176 13.012c-1.619 2.299-4.194 3.528-6.809 3.528z" fill="url(#SVGID_71_)"/><path d="m243.208 271.556-33.03 33.03c-2.475 2.475-6.488 2.475-8.963 0-2.475-2.475-2.475-6.488 0-8.963l33.03-33.03c2.475-2.475 6.488-2.475 8.963 0 2.475 2.475 2.475 6.488 0 8.963z" fill="url(#SVGID_72_)"/><path d="m252.171 280.52-33.03 33.03c-2.475 2.475-6.488 2.475-8.963 0-2.475-2.475-2.475-6.488 0-8.963l33.03-33.03c2.475-2.475 6.488-2.475 8.963 0 2.476 2.475 2.476 6.487 0 8.963z" fill="url(#SVGID_73_)"/><path d="m261.135 289.483-33.03 33.03c-2.475 2.475-6.488 2.475-8.963 0-2.475-2.475-2.475-6.488 0-8.963l33.03-33.03c2.475-2.475 6.488-2.475 8.963 0 2.475 2.475 2.475 6.488 0 8.963z" fill="url(#SVGID_74_)"/><path d="m243.206 262.59.005.005c2.472 2.472 2.472 6.486 0 8.958l-9.132 9.132c-2.472 2.472-6.486 2.472-8.958 0l-.005-.005c-2.472-2.472-2.472-6.486 0-8.958l9.132-9.132c2.472-2.472 6.485-2.472 8.958 0z" fill="url(#SVGID_75_)"/><path d="m252.169 271.554.005.005c2.472 2.472 2.472 6.486 0 8.958l-9.132 9.132c-2.472 2.472-6.486 2.472-8.958 0l-.005-.005c-2.472-2.472-2.472-6.486 0-8.958l9.132-9.132c2.472-2.473 6.486-2.473 8.958 0z" fill="url(#SVGID_76_)"/><path d="m261.132 280.517.005.005c2.472 2.472 2.472 6.486 0 8.958l-9.132 9.132c-2.472 2.472-6.486 2.472-8.958 0l-.005-.005c-2.472-2.472-2.472-6.486 0-8.958l9.132-9.132c2.472-2.472 6.486-2.472 8.958 0z" fill="url(#SVGID_77_)"/><path d="m276.941 291.503h-22.349c-16.019 0-29.433 13.109-29.127 29.125.297 15.521 12.971 28.011 28.563 28.011 8.016 0 15.258-3.303 20.445-8.621 5.359-5.495 12.171-9.355 19.528-11.546 5.046-1.502 8.505-6.141 8.505-11.406 0-14.118-11.446-25.563-25.565-25.563z" fill="url(#SVGID_78_)"/><path d="m293.423 328.663-23.562-23.562c-3.973-4.201-9.595-6.826-15.833-6.826-12.038 0-21.796 9.758-21.796 21.796 0 6.238 2.625 11.86 6.825 15.833l12.632 12.633c.772.063 1.55.103 2.339.103 8.016 0 15.258-3.303 20.445-8.621 5.218-5.351 11.817-9.138 18.95-11.356z" fill="url(#SVGID_79_)"/><circle cx="254.028" cy="320.071" fill="url(#SVGID_80_)" r="21.796"/><circle cx="418.491" cy="326.425" fill="url(#SVGID_81_)" r="11.876"/><path d="m273.298 203.008-28.426-28.426c-13.327-13.327-34.275-15.225-49.78-4.509l-41.161 28.446c-4.734 3.271-7.158 9.006-6.12 14.665 2.361 12.878 9.796 36.9 33.198 61.494 1.822 1.915 4.88 1.872 6.699-.044 6.043-6.366 20.758-18.876 43.705-19.743 1.413-.053 2.528-1.221 2.528-2.635 0-9.154-7.421-16.574-16.574-16.574h-26.836c-1.632 0-2.306-2.092-.98-3.045l17.605-12.647c8.344-5.994 19.801-5.062 27.066 2.203 8.598 8.598 22.682 8.106 30.658-1.071l8.701-10.01c2.048-2.358 1.925-5.897-.283-8.104z" fill="url(#SVGID_82_)"/><path d="m485.667 172.022c7.138-.27 13.688-3.566 18.127-8.87-17.276 0-36.973 0-58.646 0-82.777 0-129.946 98.202-129.946 98.202 57.265-76.627 137.225-88.074 170.465-89.332z" fill="url(#SVGID_83_)"/></svg>