<svg id="Capa_1" enable-background="new 0 0 512 512" height="512" viewBox="0 0 512 512" width="512" xmlns="http://www.w3.org/2000/svg" xmlns:xlink="http://www.w3.org/1999/xlink"><linearGradient id="lg1"><stop offset="0" stop-color="#43386b"/><stop offset="1" stop-color="#7662bd"/></linearGradient><linearGradient id="SVGID_1_" gradientTransform="matrix(-1 0 0 1 377.017 0)" gradientUnits="userSpaceOnUse" x1="235.449" x2="251.158" xlink:href="#lg1" y1="351.395" y2="324.187"/><linearGradient id="SVGID_2_" gradientTransform="matrix(-1 0 0 1 377.017 0)" gradientUnits="userSpaceOnUse" x1="91.848" x2="107.557" xlink:href="#lg1" y1="434.567" y2="407.36"/><linearGradient id="SVGID_3_" gradientTransform="matrix(-1 0 0 1 528 0)" gradientUnits="userSpaceOnUse" x1="298.55" x2="336.934" y1="209.401" y2="209.401"><stop offset="0" stop-color="#dea861"/><stop offset="1" stop-color="#cc8241"/></linearGradient><linearGradient id="SVGID_4_" gradientTransform="matrix(-1 0 0 1 528 0)" gradientUnits="userSpaceOnUse" x1="253.468" x2="397.216" y1="38.652" y2="121.645"><stop offset="0" stop-color="#dea861"/><stop offset="1" stop-color="#ebcba0"/></linearGradient><linearGradient id="lg2"><stop offset="0" stop-color="#ab2c37"/><stop offset="1" stop-color="#ff4757"/></linearGradient><linearGradient id="SVGID_5_" gradientUnits="userSpaceOnUse" x1="403.498" x2="284.843" xlink:href="#lg2" y1="420.157" y2="190.441"/><linearGradient id="SVGID_6_" gradientUnits="userSpaceOnUse" x1="192.692" x2="192.692" xlink:href="#lg2" y1="405.137" y2="10.715"/><linearGradient id="SVGID_7_" gradientUnits="userSpaceOnUse" x1="257.031" x2="257.031" xlink:href="#lg1" y1="379.268" y2="263.339"/><linearGradient id="SVGID_8_" gradientUnits="userSpaceOnUse" x1="375.75" x2="375.75" xlink:href="#lg1" y1="378.706" y2="248.88"/><linearGradient id="SVGID_9_" gradientUnits="userSpaceOnUse" x1="257.52" x2="257.52" xlink:href="#lg1" y1="527.675" y2="389.827"/><linearGradient id="SVGID_10_" gradientUnits="userSpaceOnUse" x1="113.918" x2="113.918" xlink:href="#lg1" y1="444.502" y2="306.655"/><linearGradient id="SVGID_11_" gradientUnits="userSpaceOnUse" x1="323.648" x2="342.096" xlink:href="#lg1" y1="448.285" y2="448.285"/><linearGradient id="SVGID_12_" gradientUnits="userSpaceOnUse" x1="393.634" x2="393.634" y1="434.371" y2="397.309"><stop offset="0" stop-color="#43386b"/><stop offset="1" stop-color="#594a8e"/></linearGradient><g><path d="m88.468 320.625 36.295-20.869.001.003c6.617-3.506 15.117-3.007 24.391 2.347 21.1 12.182 38.204 44.863 38.204 72.996 0 15.467-5.177 26.324-13.339 30.954l.006.013-34.848 20.061z" fill="url(#SVGID_1_)"/><path d="m232.069 403.798 36.295-20.869.001.003c6.617-3.506 15.117-3.007 24.391 2.347 21.1 12.182 38.204 44.863 38.204 72.996 0 15.467-5.177 26.324-13.339 30.954l.006.012-34.848 20.061z" fill="url(#SVGID_2_)"/><g><path d="m57.026 251.669v-174.095l279.427 11.982v174.095c0 3.989-1.973 7.978-5.922 10.258l-110.693 63.908c-7.872 4.545-17.572 4.545-25.444 0l-131.446-75.89c-3.949-2.279-5.923-6.269-5.922-10.258z" fill="url(#SVGID_3_)"/><path d="m330.531 79.3-131.446-75.891c-7.872-4.545-17.572-4.545-25.444 0l-110.693 63.908c-7.896 4.559-7.896 15.955 0 20.514l131.447 75.891c7.872 4.545 17.572 4.545 25.444 0l110.693-63.908c7.895-4.559 7.895-15.956-.001-20.514z" fill="url(#SVGID_4_)"/><path d="m287.91 54.693-141.18 81.51-37.45-21.622 141.181-81.51z" fill="#dea861"/><path d="m265.527 41.758-141.18 81.511 7.336 4.235 141.18-81.51z" fill="#cc8241"/><path d="m146.73 136.203v30.928l-37.45-21.622v-30.928z" fill="#ba5c25"/></g><path d="m447.172 336.086-26.765-112.211c-3.207-13.444-11.805-24.977-23.775-31.887l-57.527-33.255c-3.447-1.99-7.381-1.409-10.119.749l-100.559 58.058-20.164 11.642 7.916 60.553 12.67 7.41 96.12 188.128 118.362-68.336c.827-.339 1.605-.788 2.312-1.335 2.244-1.736 3.762-4.445 3.762-7.684v-52.861c-.002-6.389-.75-12.756-2.233-18.971z" fill="url(#SVGID_5_)"/><path d="m342.598 408.667 16.859-9.733c1.005-.58 2.26.145 2.26 1.305v14.799c0 2.006-1.07 3.86-2.808 4.863l-16.859 9.733c-1.005.58-2.26-.145-2.26-1.305v-14.799c0-2.006 1.07-3.859 2.808-4.863z" fill="#e9e5f6"/><path d="m425.559 360.722 16.859-9.733c1.005-.58 2.26.145 2.26 1.305v14.799c0 2.006-1.07 3.86-2.808 4.863l-16.859 9.733c-1.005.58-2.26-.145-2.26-1.305v-14.799c.001-2.006 1.071-3.86 2.808-4.863z" fill="#e9e5f6"/><path d="m204.695 325.875v-89.501c0-6.952 7.526-11.298 13.547-7.821l57.527 33.254c11.97 6.911 20.568 18.443 23.775 31.887l26.765 112.211c1.482 6.215 2.231 12.582 2.231 18.971v52.861c0 7.497-8.116 12.183-14.609 8.435l-245.545-142.205c-7.142-4.123-11.541-11.743-11.541-19.99v-55.868c0-4.512 4.885-7.332 8.792-5.076l123.626 71.73c6.85 3.975 15.432-.968 15.432-8.888z" fill="url(#SVGID_6_)"/><path d="m219.555 340.643v-91.727l46.427 26.846c4.591 2.651 7.828 7.141 8.892 12.335l19.632 95.861z" fill="url(#SVGID_7_)"/><path d="m416.706 232.727-103.104 59.527 21.192 91.703 103.104-59.527z" fill="url(#SVGID_8_)"/><path d="m219.315 434.419c0-28.133 17.104-41.064 38.204-28.882s38.204 44.863 38.204 72.996-17.105 41.064-38.204 28.882-38.204-44.863-38.204-72.996z" fill="url(#SVGID_9_)"/><ellipse cx="257.52" cy="456.476" fill="#e9e5f6" rx="20.659" ry="36.517" transform="matrix(.92 -.392 .392 .92 -158.172 137.278)"/><ellipse cx="257.52" cy="456.476" fill="#7662bd" rx="10.525" ry="18.604" transform="matrix(.92 -.392 .392 .92 -158.171 137.277)"/><path d="m75.714 351.246c0-28.133 17.105-41.064 38.204-28.882 21.1 12.182 38.204 44.864 38.204 72.996 0 28.133-17.104 41.064-38.204 28.882-21.099-12.181-38.204-44.863-38.204-72.996z" fill="url(#SVGID_10_)"/><ellipse cx="113.918" cy="373.304" fill="#e9e5f6" rx="20.659" ry="36.517" transform="matrix(.92 -.392 .392 .92 -137.073 74.412)"/><path d="m101.8 366.307c0-8.924 5.425-13.025 12.118-9.161s12.118 14.23 12.118 23.154-5.425 13.025-12.118 9.161c-6.692-3.864-12.118-14.23-12.118-23.154z" fill="#7662bd"/><path d="m449.068 402.624-124.01 67.898-22.855-10.984v26.584l19.607 11.32c3.461 1.998 7.726 1.998 11.187 0l119.82-69.178c1.56-.9 2.339-2.476 2.339-4.052v-26.584z" fill="url(#SVGID_11_)"/><path d="m307.506 456.476 21.033 12.143 120.864-69.781v-7.232l3.413 1.97c3.119 1.801 3.119 6.303 0 8.103l-119.82 69.178c-3.461 1.998-7.726 1.998-11.187 0l-19.607-11.32z" fill="#a996eb"/><path d="m368.291 421.961 50.684-29.263v8.692c0 5.523-2.946 10.627-7.73 13.388l-35.341 20.404c-3.384 1.954-7.614-.488-7.614-4.396v-8.825z" fill="url(#SVGID_12_)"/></g></svg>