<svg id="Capa_1" enable-background="new 0 0 512 512" height="512" viewBox="0 0 512 512" width="512" xmlns="http://www.w3.org/2000/svg" xmlns:xlink="http://www.w3.org/1999/xlink"><linearGradient id="SVGID_1_" gradientUnits="userSpaceOnUse" x1="150.747" x2="204.823" y1="310.644" y2="310.644"><stop offset="0" stop-color="#cc8241"/><stop offset="1" stop-color="#dea861"/></linearGradient><linearGradient id="SVGID_2_" gradientUnits="userSpaceOnUse" x1="87.235" x2="289.748" y1="70.091" y2="187.013"><stop offset="0" stop-color="#dea861"/><stop offset="1" stop-color="#ebcba0"/></linearGradient><linearGradient id="SVGID_3_" gradientUnits="userSpaceOnUse" x1="405.513" x2="443.982" y1="291.948" y2="225.319"><stop offset="0" stop-color="#43386b"/><stop offset="1" stop-color="#7662bd"/></linearGradient><g><g><path d="m393.659 370.192v-245.267l-393.659 16.881v245.266c-.001 5.62 2.78 11.24 8.342 14.452l155.945 90.034c11.091 6.403 24.756 6.403 35.846 0l185.183-106.915c5.563-3.211 8.344-8.831 8.343-14.451z" fill="url(#SVGID_1_)"/><path d="m8.342 127.357 185.184-106.916c11.091-6.403 24.755-6.403 35.846 0l155.945 90.035c11.124 6.422 11.124 22.478 0 28.9l-185.184 106.915c-11.091 6.403-24.755 6.403-35.846 0l-155.945-90.035c-11.123-6.422-11.123-22.477 0-28.899z" fill="url(#SVGID_2_)"/><path d="m68.387 92.69 198.896 114.832 52.76-30.461-198.896-114.832z" fill="#dea861"/><g fill="#cc8241"><path d="m99.921 74.468 198.896 114.832-10.335 5.967-198.896-114.832z"/><path d="m267.283 207.522v43.571l52.76-30.461v-43.571z"/></g></g><g><path d="m480.749 184.969.005-.01-41.069-23.643-.003.006c-16.212-8.59-37.037-7.367-59.757 5.751-51.693 29.845-93.599 109.914-93.599 178.839 0 37.894 12.683 64.494 32.679 75.837l-.014.031 37.524 21.664.039-.08c16.494 9.859 38.132 9.147 61.845-4.544 51.694-29.845 93.6-109.914 93.6-178.839.001-36.987-12.077-63.228-31.25-75.012z" fill="url(#SVGID_3_)"/><g transform="matrix(.392 -.92 .92 .392 -34.373 576.059)"><ellipse cx="418.4" cy="314.021" fill="#a996eb" rx="143.693" ry="81.293"/><ellipse cx="418.4" cy="314.021" fill="#f2effa" rx="103.72" ry="58.679"/><ellipse cx="418.4" cy="314.021" fill="#a996eb" rx="20.085" ry="11.363"/></g><g><path d="m413.303 322.848v-75.777c0-2.815 2.282-5.097 5.097-5.097s5.097 2.282 5.097 5.097v58.121l41.389-23.896c2.438-1.409 5.555-.571 6.962 1.866 1.407 2.438.571 5.555-1.867 6.963z" fill="#a996eb"/></g></g></g></svg>