<svg id="Capa_1" enable-background="new 0 0 512 512" height="512" viewBox="0 0 512 512" width="512" xmlns="http://www.w3.org/2000/svg" xmlns:xlink="http://www.w3.org/1999/xlink"><linearGradient id="lg1"><stop offset="0" stop-color="#236568"/><stop offset="1" stop-color="#2f878a"/></linearGradient><linearGradient id="SVGID_1_" gradientUnits="userSpaceOnUse" x1="169.96" x2="194.351" xlink:href="#lg1" y1="290.034" y2="247.787"/><linearGradient id="SVGID_2_" gradientUnits="userSpaceOnUse" x1="221.153" x2="444.67" xlink:href="#lg1" y1="26.039" y2="26.039"/><g><path d="m217.225 495.894 227.445-452.993-69.735-40.262c-2.284-1.925-5.134-2.86-8.401-2.595l-145.382 11.809-145.381 156.064c-8.656 9.291-14.397 23.622-14.397 35.936v51.515c0 97.1 31.962 168.527 84.775 199.439l-.02.039 2.202 1.271c.047.026.093.055.14.081z" fill="url(#SVGID_1_)"/><path d="m444.67 42.901-69.735-40.262c-2.284-1.925-5.134-2.86-8.401-2.595l-145.382 11.809 69.695 40.224z" fill="url(#SVGID_2_)"/><path d="m290.847 52.078-145.381 156.063c-8.656 9.292-14.397 23.622-14.397 35.936v51.515c0 137.055 63.624 223.068 159.778 216.003 96.154-103.965 159.778-263.444 159.778-400.499v-51.515c0-12.314-5.741-20.015-14.397-19.312z" fill="#06daae"/><g><path d="m279.949 499.128c-39.828 0-73.58-18.402-97.606-53.218-25.123-36.404-38.403-88.383-38.403-150.318v-51.515c0-9.076 4.5-20.246 10.945-27.163l140.278-150.585c1.095-1.174 2.589-1.898 4.188-2.028l131.446-10.677c1.794-.142 3.562.465 4.884 1.683 1.321 1.219 2.073 2.934 2.073 4.732v51.057c0 64.117-14.362 134.666-41.534 204.019-27.118 69.215-64.971 132.098-109.466 181.852-1.197 1.338-2.897 2.115-4.692 2.145-.708.01-1.412.016-2.113.016zm22.931-422.199-138.577 148.76c-4.201 4.509-7.49 12.586-7.49 18.389v51.515c0 59.311 12.491 108.762 36.124 143.007 21.334 30.915 51.096 47.379 86.117 47.654 87.314-98.84 145.827-249.195 145.827-375.157v-44.078z" fill="#fff"/></g><g><path d="m286.319 359.581-50.46-38.146c-6.539-4.943-8.545-13.889-4.744-21.151 4.805-9.18 16.702-11.848 24.967-5.6l30.236 22.858 109.403-209.035c2.793-5.336 9.708-6.888 14.513-3.256 3.801 2.873 4.968 8.074 2.758 12.296z" fill="#fff"/></g><g><path d="m290.848 413.746c-54.552 31.495-98.933-2.056-98.933-74.791s44.381-157.534 98.933-189.029c17-9.815 33.773-13.648 48.504-11.085 8.155 1.418 15.623 4.749 22.191 9.904 6.573 5.153 12.147 12.057 16.571 20.519 7.631 14.596 11.666 33.772 11.666 55.454 0 72.734-44.381 157.533-98.932 189.028zm0-234.094c-42.258 24.398-76.638 90.086-76.638 146.431 0 56.344 34.38 82.335 76.638 57.937s76.638-90.086 76.638-146.431c0-16.803-3.121-31.653-9.026-42.945-3.428-6.558-7.749-11.91-12.846-15.906-5.096-3.998-10.885-6.581-17.207-7.679-11.399-1.984-24.386.987-37.559 8.593z" fill="#fff"/></g></g></svg>