<svg id="Capa_1" enable-background="new 0 0 512 512" height="512" viewBox="0 0 512 512" width="512" xmlns="http://www.w3.org/2000/svg" xmlns:xlink="http://www.w3.org/1999/xlink"><linearGradient id="SVGID_1_" gradientUnits="userSpaceOnUse" x1="185.971" x2="205.615" y1="173.329" y2="139.303"><stop offset="0" stop-color="#43386b"/><stop offset="1" stop-color="#a996eb"/></linearGradient><linearGradient id="SVGID_2_" gradientUnits="userSpaceOnUse" x1="309.376" x2="334.13" y1="408.444" y2="408.444"><stop offset="0" stop-color="#cc8241"/><stop offset="1" stop-color="#dea861"/></linearGradient><linearGradient id="SVGID_3_" gradientUnits="userSpaceOnUse" x1="280.304" x2="373.004" y1="298.332" y2="351.852"><stop offset="0" stop-color="#dea861"/><stop offset="1" stop-color="#ebcba0"/></linearGradient><g><path d="m291.479 16.051-26.21-14.929-.007.02c-2.734-1.664-6.324-1.577-10.271.701l-148.084 85.498c-8.547 4.934-15.476 18.173-15.476 29.569v366.693c0 6.591 2.326 11.104 5.935 12.798l-.005.013 26.063 14.842z" fill="url(#SVGID_1_)"/><path d="m281.055 424.646-148.085 85.497c-8.547 4.935-15.476-.303-15.476-11.699v-366.693c0-11.396 6.929-24.634 15.476-29.569l148.085-85.497c8.547-4.935 15.476.303 15.476 11.699v366.692c0 11.397-6.929 24.635-15.476 29.57z" fill="#7662bd"/><path d="m134.328 126.609 146.727-84.713v334.727l-146.727 84.713z" fill="#fff"/><path d="m204.192 433.335 27.958-16.142v28.087l-27.958 16.142z" fill="#594a8e"/><g><path d="m164.802 190.402 89.085-51.433v89.496l-89.085 51.433z" fill="#dea861"/><path d="m178.317 294.789 62.056-35.828v17.616l-62.056 35.829z" fill="#d7d1eb"/><path d="m187.834 337.244 43.022-24.838v24.632l-43.022 24.839z" fill="#f7e041"/><path d="m200.519 169.946 17.652-10.191v27.925l-17.652 10.191z" fill="#cc8241"/><g fill="#8b451c"><path d="m171.201 241.805 29.318-16.927v5.517l-29.318 16.927z"/><path d="m171.201 251.653 22.259-12.851v4.188l-22.259 12.851z"/><path d="m171.201 259.255 22.259-12.852v4.189l-22.259 12.851z"/></g></g><g><path d="m420.569 435.702v-112.27l-180.196 7.727v112.27c0 2.572 1.273 5.145 3.819 6.615l71.383 41.213c5.077 2.931 11.332 2.931 16.409 0l84.767-48.94c2.545-1.47 3.818-4.043 3.818-6.615z" fill="url(#SVGID_2_)"/><path d="m244.192 324.545 84.767-48.94c5.077-2.931 11.332-2.931 16.408 0l71.383 41.213c5.092 2.94 5.092 10.289 0 13.229l-84.767 48.94c-5.077 2.931-11.332 2.931-16.409 0l-71.383-41.213c-5.091-2.94-5.091-10.289.001-13.229z" fill="url(#SVGID_3_)"/><path d="m271.677 308.676 91.044 52.564 24.15-13.943-91.044-52.564z" fill="#dea861"/><g fill="#cc8241"><path d="m286.111 300.335 91.044 52.564-4.731 2.732-91.043-52.564z"/><path d="m362.721 361.24v19.945l24.15-13.943v-19.945z"/></g></g></g></svg>