<svg id="Capa_1" enable-background="new 0 0 512 512" height="512" viewBox="0 0 512 512" width="512" xmlns="http://www.w3.org/2000/svg" xmlns:xlink="http://www.w3.org/1999/xlink"><linearGradient id="SVGID_1_" gradientUnits="userSpaceOnUse" x1="162.881" x2="190.329" y1="265.545" y2="218.003"><stop offset="0" stop-color="#0072bc"/><stop offset="1" stop-color="#79d3fe"/></linearGradient><linearGradient id="SVGID_2_" gradientUnits="userSpaceOnUse" x1="267.38" x2="267.38" y1="545.019" y2="-8.606"><stop offset="0" stop-color="#0197f8"/><stop offset="1" stop-color="#59acf9"/></linearGradient><g><path d="m433.395 14.992-22.904-13.223c-3.835-2.511-8.96-2.442-14.593.81l-302.556 174.68c-11.881 6.86-21.512 25.262-21.512 41.103v261.669c0 9.359 3.363 15.726 8.563 17.959l20.716 11.96z" fill="url(#SVGID_1_)"/><path d="m418.658 334.738-302.556 174.68c-11.881 6.859-21.512-.422-21.512-16.263v-261.669c0-15.841 9.631-34.244 21.512-41.103l302.556-174.68c11.881-6.859 21.512.422 21.512 16.263v261.669c0 15.841-9.631 34.244-21.512 41.103z" fill="url(#SVGID_2_)"/><path d="m94.59 463.064 345.58-199.52v-59.139l-345.58 199.52z" fill="#00395e"/><path d="m197.276 317.272-65.394 38.189v-28.716l65.394-38.188z" fill="#fff"/><path d="m244.889 289.127-32.697 19.095v-28.716l32.697-19.094z" fill="#fff"/><path d="m399.039 143.226-53.987 31.527c-3.936 2.299-8.882-.54-8.882-5.099v-42.821c0-5.398 2.866-10.391 7.528-13.113l53.987-31.527c3.936-2.299 8.882.541 8.882 5.099v42.821c-.001 5.398-2.867 10.391-7.528 13.113z" fill="#f7e041"/><ellipse cx="236.883" cy="208.349" fill="#7662bd" rx="42.264" ry="23.911" transform="matrix(.392 -.92 .92 .392 -47.583 344.739)"/><g fill="#e37a34"><ellipse cx="165.047" cy="252.503" rx="42.264" ry="23.911" transform="matrix(.392 -.92 .92 .392 -131.919 305.505)"/><path d="m346.05 112.393v61.823l6.95-4.059v-61.823z"/><path d="m346.05 130.715 60.516-34.939v6.582l-60.516 34.94z"/><path d="m346.05 151.476 60.516-34.939v6.582l-60.516 34.939z"/></g></g></svg>