<?xml version="1.0" encoding="utf-8"?>
<!-- Generator: Adobe Illustrator 22.0.1, SVG Export Plug-In . SVG Version: 6.00 Build 0)  -->
<svg version="1.1" id="Capa_1" xmlns="http://www.w3.org/2000/svg" xmlns:xlink="http://www.w3.org/1999/xlink" x="0px" y="0px"
	 viewBox="0 0 512 512" style="enable-background:new 0 0 512 512;" xml:space="preserve">
<style type="text/css">
	.st0{fill:url(#SVGID_1_);}
	.st1{fill:url(#SVGID_2_);}
	.st2{fill:url(#SVGID_3_);}
	.st3{fill:#A996EB;}
	.st4{fill:#F2EFFA;}
	.st5{fill:#FF4757;}
	.st6{fill:#594A8E;}
	.st7{fill:url(#SVGID_4_);}
	.st8{fill:#FF7A85;}
	.st9{fill:url(#SVGID_5_);}
	.st10{fill:#06DAAE;}
	.st11{fill:url(#SVGID_6_);}
</style>
<g>
	
		<linearGradient id="SVGID_1_" gradientUnits="userSpaceOnUse" x1="321.4105" y1="388.4028" x2="400.4998" y2="388.4028" gradientTransform="matrix(1 0 0 -1 0 512)">
		<stop  offset="0" style="stop-color:#236568"/>
		<stop  offset="1" style="stop-color:#2F878A"/>
	</linearGradient>
	<path class="st0" d="M398.1,111.7c-6.6-12.3-25.1-22.8-41.2-23.3c-8.9-0.3-15.2,2.5-18,7.1l0,0l-15.6,25.2l0,0
		c-2.6,3.8-2.6,8.9,0.5,14.7c6.6,12.3,25.1,22.7,41.2,23.3c9.3,0.3,15.8-2.8,18.4-7.8l14.8-23.9l0,0
		C401.2,123.2,401.4,117.8,398.1,111.7L398.1,111.7z"/>
	
		<linearGradient id="SVGID_2_" gradientUnits="userSpaceOnUse" x1="126.1061" y1="277.5762" x2="8.3471" y2="350.0432" gradientTransform="matrix(1 0 0 -1 0 512)">
		<stop  offset="0" style="stop-color:#43386B"/>
		<stop  offset="1" style="stop-color:#7662BD"/>
	</linearGradient>
	<path class="st1" d="M9.9,154.3l99.1,57.2c5.1,2.9,8.2,8.3,8.2,14.2c0,5.1-5.5,8.3-9.9,5.7L8.2,174.2c-5.1-2.9-8.2-8.3-8.2-14.2
		C0,155,5.5,151.8,9.9,154.3z"/>
	<g>
		
			<linearGradient id="SVGID_3_" gradientUnits="userSpaceOnUse" x1="271.2754" y1="223.9458" x2="324.27" y2="315.7339" gradientTransform="matrix(1 0 0 -1 0 512)">
			<stop  offset="0" style="stop-color:#43386B"/>
			<stop  offset="1" style="stop-color:#7662BD"/>
		</linearGradient>
		<path class="st2" d="M374.9,140.7L374.9,140.7l-56.6-32.6l0,0C296,96.3,267.3,98,236,116c-71.2,41.1-128.9,151.4-128.9,246.4
			c0,52.2,17.5,88.8,45,104.5l0,0l51.7,29.8l0.1-0.1c22.7,13.6,52.5,12.6,85.2-6.3C360.2,449.3,418,339,418,244
			C418,193.1,401.3,156.9,374.9,140.7L374.9,140.7z"/>
		<ellipse transform="matrix(0.392 -0.92 0.92 0.392 -117.4075 459.9655)" class="st3" cx="289.3" cy="318.8" rx="198" ry="112"/>
		<ellipse transform="matrix(0.392 -0.92 0.92 0.392 -117.4085 459.964)" class="st4" cx="289.3" cy="318.8" rx="142.9" ry="80.8"/>
		<path class="st5" d="M368.6,208.1c-16.3-26.3-45.8-33.2-79.6-13.7v124.1L368.6,208.1z"/>
		<path class="st6" d="M307.1,308.1c0-13.3-8.1-19.4-18-13.6s-18,21.2-18,34.4s8.1,19.4,18,13.6C299,336.7,307.1,321.3,307.1,308.1z
			"/>
		<g>
			<path class="st6" d="M282,340.1V226.2c0-3.9,3.1-7,7-7c3.9,0,7,3.1,7,7v70.6l38-52.4c2.3-3.1,6.7-3.8,9.8-1.6
				c3.1,2.3,3.8,6.7,1.6,9.8L282,340.1z"/>
		</g>
	</g>
	<g>
		<path class="st6" d="M293.2,114V88.4l-49.5,3.3v26.8l0,0c-0.1,3.4,1.8,6.6,6,9.1c9,5.2,24.6,4.5,34.9-1.4
			C290.7,122.7,293.6,118.2,293.2,114L293.2,114z"/>
		
			<linearGradient id="SVGID_4_" gradientUnits="userSpaceOnUse" x1="229.9747" y1="442.2679" x2="316.7882" y2="442.2679" gradientTransform="matrix(1 0 0 -1 0 512)">
			<stop  offset="0" style="stop-color:#AB2C37"/>
			<stop  offset="1" style="stop-color:#FF7A85"/>
		</linearGradient>
		<path class="st7" d="M307,72.7V40.3l-77,5.2v34.1l0.1,0c-0.2,5.3,2.9,10.3,9.4,14.1c13.9,8,38.3,7,54.4-2.3
			C303,86.1,307.5,79.1,307,72.7L307,72.7z"/>
		<ellipse transform="matrix(0.9927 -0.121 0.121 0.9927 -3.1387 32.8193)" class="st8" cx="268.8" cy="42.3" rx="38.7" ry="21.9"/>
	</g>
	<g>
		
			<linearGradient id="SVGID_5_" gradientUnits="userSpaceOnUse" x1="247.194" y1="418.2689" x2="322.6963" y2="418.2689" gradientTransform="matrix(0.581 -0.814 -0.814 -0.581 354.715 669.365)">
			<stop  offset="0" style="stop-color:#236568"/>
			<stop  offset="1" style="stop-color:#2F878A"/>
		</linearGradient>
		<path class="st9" d="M198.9,172L176,155.7l-35.2,57.1l24.1,17.2l0,0c3.6,2.8,8.8,3.2,14.7,0.5c12.7-5.8,24.3-23.5,25.9-39.6
			C206.4,181.6,203.7,174.9,198.9,172L198.9,172z"/>
		
			<ellipse transform="matrix(0.4782 -0.8783 0.8783 0.4782 -79.3712 234.6367)" class="st10" cx="157.8" cy="184.1" rx="33.7" ry="19.1"/>
	</g>
	
		<linearGradient id="SVGID_6_" gradientUnits="userSpaceOnUse" x1="162.3396" y1="214.4654" x2="44.5806" y2="286.9334" gradientTransform="matrix(1 0 0 -1 0 512)">
		<stop  offset="0" style="stop-color:#43386B"/>
		<stop  offset="1" style="stop-color:#7662BD"/>
	</linearGradient>
	<path class="st11" d="M46.2,217.4l99.1,57.2c5.1,2.9,8.2,8.3,8.2,14.2c0,5.1-5.5,8.3-9.9,5.7l-99.1-57.2c-5.1-2.9-8.2-8.3-8.2-14.2
		C36.2,218.1,41.7,214.9,46.2,217.4L46.2,217.4z"/>
</g>
</svg>
